<?xml version="1.0" encoding="UTF-8"?>
<svg version="1.1" xmlns="http://www.w3.org/2000/svg" width="217" height="215">
<path d="M0 0 C1.67542976 0.28604898 3.34385343 0.61781233 5 1 C11.40883781 26.84043404 2.31830549 59.4777809 -2 85 C-1.01 84.67 -0.02 84.34 1 84 C3.90165425 83.70690919 6.79148412 83.45761052 9.69921875 83.24609375 C10.56706497 83.18092056 11.43491119 83.11574738 12.32905579 83.04859924 C14.17405795 82.91135556 16.01921288 82.77615286 17.86450195 82.64282227 C20.63225691 82.44151794 23.39909466 82.22999873 26.16601562 82.01757812 C36.80298539 81.2251237 47.33231903 80.80401083 58 81 C58.10666992 80.289646 58.21333984 79.57929199 58.32324219 78.84741211 C59.56409503 70.96799655 61.28150339 63.28943037 63.25 55.5625 C63.55429932 54.35561523 63.85859863 53.14873047 64.17211914 51.90527344 C66.89507479 41.20557636 69.87185326 30.58757358 73 20 C74.32 20.33 75.64 20.66 77 21 C77.45933181 24.55982151 76.7174537 26.84556754 75.19921875 29.98828125 C72.7887202 35.27291784 71.14917795 40.67087386 69.5625 46.25 C69.11571899 47.79880859 69.11571899 47.79880859 68.65991211 49.37890625 C65.77860938 59.50946461 63.32174698 69.72867695 61 80 C62.65 80 64.3 80 66 80 C66 80.99 66 81.98 66 83 C65 84 65 84 61.9375 84.0625 C60.968125 84.041875 59.99875 84.02125 59 84 C59.0309375 84.99773437 59.061875 85.99546875 59.09375 87.0234375 C59.01512711 90.35835839 58.62091176 93.29444991 57.93188477 96.54394531 C56.021918 105.74719952 55.63730123 114.86595167 55.5625 124.25 C55.52962891 126.14226318 55.52962891 126.14226318 55.49609375 128.07275391 C55.51183676 135.38833365 55.72900292 139.72900292 61 145 C61.04063832 146.66617115 61.042721 148.33388095 61 150 C59.68 150.33 58.36 150.66 57 151 C46.40504672 135.62022912 51.82249772 110.28990337 55.02734375 92.83984375 C55.60065317 89.86688586 56.2415728 86.93126421 57 84 C55.37561035 84.1353658 53.7512207 84.27073161 52.12683105 84.40609741 C50.65783691 84.52851359 49.18884277 84.65092977 47.71984863 84.77334595 C46.94604858 84.83782928 46.17224854 84.90231262 45.375 84.96875 C42.98046875 85.16829427 40.5859375 85.36783854 38.19140625 85.56738281 C37.43730469 85.63022461 36.68320313 85.69306641 35.90625 85.7578125 C35.13837158 85.82180237 34.37049316 85.88579224 33.5793457 85.95172119 C32.80034912 86.01663757 32.02135254 86.08155396 31.21875 86.1484375 C27.8125 86.43229167 24.40625 86.71614583 21 87 C19.41276123 87.1322699 19.41276123 87.1322699 17.79345703 87.26721191 C16.68212402 87.359823 15.57079102 87.45243408 14.42578125 87.54785156 C13.32206177 87.63982819 12.21834229 87.73180481 11.08117676 87.8265686 C8.9017334 88.00818888 6.72229004 88.18980916 4.54284668 88.37142944 C3.55997681 88.45333527 2.57710693 88.53524109 1.56445312 88.61962891 C0.04296875 88.74641927 -1.47851562 88.87320964 -3 89 C-5.1205657 97.60687612 -7.23380798 106.21551241 -9.33870125 114.82623482 C-10.31719923 118.82818004 -11.29784847 122.82956738 -12.28417969 126.82958984 C-16.30987801 143.16257971 -20.24107917 159.4976871 -23.5546875 175.9921875 C-23.93272018 177.86210861 -23.93272018 177.86210861 -24.31838989 179.76980591 C-25.70335891 186.83122189 -25.70335891 186.83122189 -26 194 C-22.72303131 190.36642001 -21.58085874 186.16155512 -20.25 181.5625 C-19.99758545 180.70648193 -19.7451709 179.85046387 -19.48510742 178.96850586 C-16.19817189 167.56385076 -13.49685797 156.00053419 -10.80615234 144.44335938 C-10.26075979 142.11379651 -9.70344733 139.78699742 -9.13525391 137.46289062 C-8.86245605 136.33173828 -8.5896582 135.20058594 -8.30859375 134.03515625 C-8.06294678 133.03234619 -7.8172998 132.02953613 -7.56420898 130.99633789 C-6.4526525 125.09320821 -6.08672692 118.73981925 -8 113 C-6.0625 110.3125 -6.0625 110.3125 -4 108 C-2.68 108.33 -1.36 108.66 0 109 C0.20117553 115.03182698 -0.4848393 120.31820315 -1.828125 126.1875 C-2.01840271 127.04827148 -2.20868042 127.90904297 -2.40472412 128.79589844 C-3.01196661 131.53241749 -3.63101649 134.26611583 -4.25 137 C-4.65046437 138.80322461 -5.05020967 140.60660906 -5.44921875 142.41015625 C-16.80315269 193.47509127 -16.80315269 193.47509127 -24 201 C-26.52734375 201.83984375 -26.52734375 201.83984375 -29 202 C-31.63501614 199.36498386 -31.29855548 198.181354 -31.3125 194.5 C-31.19192147 189.1028589 -30.6471651 183.95044866 -29.734375 178.6328125 C-29.60176773 177.85185211 -29.46916046 177.07089172 -29.33253479 176.26626587 C-27.86781817 167.88829924 -25.94324906 159.63712979 -23.9375 151.375 C-23.54919022 149.75690525 -23.1611765 148.13873943 -22.7734375 146.52050781 C-19.74341654 133.91547312 -16.63167083 121.33011361 -13.5 108.75 C-13.28076874 107.86753601 -13.06153748 106.98507202 -12.83566284 106.0758667 C-12.21615013 103.58632772 -11.59314457 101.09769349 -10.96875 98.609375 C-10.78373428 97.86537445 -10.59871857 97.1213739 -10.40809631 96.35482788 C-9.1154247 91.2308494 -9.1154247 91.2308494 -8 89 C-36.43207593 91.94190728 -36.43207593 91.94190728 -60 106 C-60.99 105.67 -61.98 105.34 -63 105 C-63 102.8125 -63 102.8125 -62 100 C-49.00026481 89.16688734 -23.45023543 85.38482499 -7 86 C-6.86335938 84.68757324 -6.72671875 83.37514648 -6.5859375 82.02294922 C-6.08557143 77.52744535 -5.4002835 73.08796186 -4.625 68.6328125 C-4.35929125 67.07162883 -4.09366893 65.51043046 -3.828125 63.94921875 C-3.41491084 61.53798682 -3.00034529 59.12699918 -2.58398438 56.71630859 C-0.46426375 44.4123852 1.17767672 32.38985785 1.1875 19.875 C1.19974609 19.04613281 1.21199219 18.21726562 1.22460938 17.36328125 C1.23663654 12.23970996 0.652324 7.67486206 -0.66674805 2.71923828 C-0.77672119 2.15188965 -0.88669434 1.58454102 -1 1 C-0.67 0.67 -0.34 0.34 0 0 Z " fill="#E37E31" transform="translate(96,7)"/>
<path d="M0 0 C0.66 0 1.32 0 2 0 C2.3629218 7.45695246 1.3613193 13.96691638 -0.484375 21.17578125 C-0.86967377 22.74455269 -0.86967377 22.74455269 -1.26275635 24.34501648 C-2.0809814 27.6703119 -2.91437363 30.99153878 -3.75 34.3125 C-8.41256432 52.9753692 -8.41256432 52.9753692 -12.390625 71.79296875 C-12.55737732 72.65360428 -12.72412964 73.51423981 -12.89593506 74.4009552 C-13.62190503 78.3157184 -14.20913972 81.99842625 -14 86 C-10.72303131 82.36642001 -9.58085874 78.16155512 -8.25 73.5625 C-7.99758545 72.70648193 -7.7451709 71.85046387 -7.48510742 70.96850586 C-4.19817189 59.56385076 -1.49685797 48.00053419 1.19384766 36.44335938 C1.73924021 34.11379651 2.29655267 31.78699742 2.86474609 29.46289062 C3.13754395 28.33173828 3.4103418 27.20058594 3.69140625 26.03515625 C4.05987671 24.53094116 4.05987671 24.53094116 4.43579102 22.99633789 C5.5473475 17.09320821 5.91327308 10.73981925 4 5 C5.9375 2.3125 5.9375 2.3125 8 0 C9.32 0.33 10.64 0.66 12 1 C12.20117553 7.03182698 11.5151607 12.31820315 10.171875 18.1875 C9.88645844 19.47865723 9.88645844 19.47865723 9.59527588 20.79589844 C8.98803339 23.53241749 8.36898351 26.26611583 7.75 29 C7.34953563 30.80322461 6.94979033 32.60660906 6.55078125 34.41015625 C-4.80315269 85.47509127 -4.80315269 85.47509127 -12 93 C-14.52734375 93.83984375 -14.52734375 93.83984375 -17 94 C-19.63501614 91.36498386 -19.29855548 90.181354 -19.3125 86.5 C-19.19032974 81.14092511 -18.66395696 76.01934733 -17.76171875 70.73828125 C-17.63055664 69.96289505 -17.49939453 69.18750885 -17.36425781 68.3886261 C-15.79143106 59.39889597 -13.66084554 50.55052365 -11.5 41.6875 C-10.90956446 39.23901484 -10.3208809 36.79011448 -9.73266602 34.34109497 C-9.35288824 32.76518209 -8.97062405 31.18986602 -8.58569336 29.61520386 C-7.72313776 26.07767191 -6.89012175 22.54175423 -6.15625 18.97509766 C-5.785 17.20271729 -5.785 17.20271729 -5.40625 15.39453125 C-5.20322266 14.3681958 -5.00019531 13.34186035 -4.79101562 12.28442383 C-4.52998047 11.53056396 -4.26894531 10.7767041 -4 10 C-3.01 9.67 -2.02 9.34 -1 9 C-0.67 6.03 -0.34 3.06 0 0 Z " fill="#DC693E" transform="translate(84,115)"/>
<path d="M0 0 C1.32 0.33 2.64 0.66 4 1 C4.45933181 4.55982151 3.7174537 6.84556754 2.19921875 9.98828125 C-0.2112798 15.27291784 -1.85082205 20.67087386 -3.4375 26.25 C-3.735354 27.28253906 -4.03320801 28.31507812 -4.34008789 29.37890625 C-7.22139062 39.50946461 -9.67825302 49.72867695 -12 60 C-10.35 60 -8.7 60 -7 60 C-7 60.99 -7 61.98 -7 63 C-8 64 -8 64 -11.0625 64.0625 C-12.031875 64.041875 -13.00125 64.02125 -14 64 C-13.9690625 64.99773437 -13.938125 65.99546875 -13.90625 67.0234375 C-13.98487289 70.35835839 -14.37908824 73.29444991 -15.06811523 76.54394531 C-16.978082 85.74719952 -17.36269877 94.86595167 -17.4375 104.25 C-17.45941406 105.51150879 -17.48132813 106.77301758 -17.50390625 108.07275391 C-17.48816324 115.38833365 -17.27099708 119.72900292 -12 125 C-11.95936168 126.66617115 -11.957279 128.33388095 -12 130 C-13.32 130.33 -14.64 130.66 -16 131 C-26.59495328 115.62022912 -21.17750228 90.28990337 -17.97265625 72.83984375 C-17.39934683 69.86688586 -16.7584272 66.93126421 -16 64 C-16.5983667 64.06058594 -17.1967334 64.12117188 -17.81323242 64.18359375 C-28.89555998 65.29044294 -39.85031953 66.37866839 -51 66 C-50.67 65.01 -50.34 64.02 -50 63 C-39.43555031 59.47851677 -26.07568779 60.86744523 -15 61 C-14.89333008 60.289646 -14.78666016 59.57929199 -14.67675781 58.84741211 C-13.43590497 50.96799655 -11.71849661 43.28943037 -9.75 35.5625 C-9.29355103 33.75217285 -9.29355103 33.75217285 -8.82788086 31.90527344 C-6.10492521 21.20557636 -3.12814674 10.58757358 0 0 Z " fill="#DEDC7D" transform="translate(169,27)"/>
<path d="M0 0 C1.32 0.33 2.64 0.66 4 1 C4.20117553 7.03182698 3.5151607 12.31820315 2.171875 18.1875 C1.88645844 19.47865723 1.88645844 19.47865723 1.59527588 20.79589844 C0.98803339 23.53241749 0.36898351 26.26611583 -0.25 29 C-0.65046437 30.80322461 -1.05020967 32.60660906 -1.44921875 34.41015625 C-7.87179919 63.29630876 -7.87179919 63.29630876 -11.75 74.5 C-12.17796875 75.7478125 -12.6059375 76.995625 -13.046875 78.28125 C-13.36140625 79.1784375 -13.6759375 80.075625 -14 81 C-17.07559166 76.3866125 -17.07559166 76.3866125 -16.58203125 73.86230469 C-16.32808594 72.97446289 -16.07414062 72.08662109 -15.8125 71.171875 C-15.52898682 70.15883301 -15.24547363 69.14579102 -14.95336914 68.10205078 C-14.63875732 66.99587402 -14.32414551 65.88969727 -14 64.75 C-11.37256649 55.21925855 -8.83430993 45.67556918 -6.52954102 36.06164551 C-6.07427637 34.17383224 -5.60470601 32.28948703 -5.13476562 30.40527344 C-3.18418283 22.17471087 -1.25166545 13.24500366 -4 5 C-2.0625 2.3125 -2.0625 2.3125 0 0 Z " fill="#D87B3B" transform="translate(92,115)"/>
<path d="M0 0 C1.67542976 0.28604898 3.34385343 0.61781233 5 1 C6.11308239 5.48794821 6.19223057 9.90330736 6.1875 14.5 C6.18669434 15.32733643 6.18588867 16.15467285 6.18505859 17.00708008 C6.04109873 32.07346742 3.98326698 47.08330051 2 62 C1.67 62 1.34 62 1 62 C1 57.71 1 53.42 1 49 C0.34 50.32 -0.32 51.64 -1 53 C-0.8547445 51.22911917 -0.70875402 49.45829864 -0.5625 47.6875 C-0.42714844 46.02267578 -0.42714844 46.02267578 -0.2890625 44.32421875 C-0.11881793 42.36640623 0.06710502 40.40965716 0.2890625 38.45703125 C0.97808044 32.26571289 1.1367368 26.09891069 1.1875 19.875 C1.20047119 19.0396875 1.21344238 18.204375 1.22680664 17.34375 C1.23437189 12.22762368 0.65046217 7.66786737 -0.66674805 2.71923828 C-0.77672119 2.15188965 -0.88669434 1.58454102 -1 1 C-0.67 0.67 -0.34 0.34 0 0 Z " fill="#E89B2F" transform="translate(96,7)"/>
<path d="M0 0 C1.32 0.33 2.64 0.66 4 1 C4.23341328 7.30215855 3.39477733 12.86486456 2 19 C1.80921875 19.87011719 1.6184375 20.74023438 1.421875 21.63671875 C0.95533903 23.7594574 0.47871537 25.87997481 0 28 C-0.66 26.68 -1.32 25.36 -2 24 C-2.66 25.32 -3.32 26.64 -4 28 C-3.835 26.9275 -3.67 25.855 -3.5 24.75 C-2.69916753 18.35478067 -1.94485575 11.16543275 -4 5 C-2.0625 2.3125 -2.0625 2.3125 0 0 Z " fill="#DC883D" transform="translate(92,115)"/>
<path d="M0 0 C0.33 0 0.66 0 1 0 C1.33 4.62 1.66 9.24 2 14 C4.90562628 10.19933158 4.90562628 10.19933158 6 6 C7.32 5.67 8.64 5.34 10 5 C8.96687638 11.6613344 6.91419734 16.51713579 3 22 C1.35 21.67 -0.3 21.34 -2 21 C-2.19181946 6.82667294 -2.19181946 6.82667294 -1 1 C-0.67 0.67 -0.34 0.34 0 0 Z " fill="#C6532F" transform="translate(68,187)"/>
<path d="M0 0 C0.495 0.99 0.495 0.99 1 2 C0.00097656 2.06058594 -0.99804688 2.12117188 -2.02734375 2.18359375 C-3.31769531 2.26738281 -4.60804688 2.35117188 -5.9375 2.4375 C-7.22527344 2.51871094 -8.51304687 2.59992188 -9.83984375 2.68359375 C-12.86023957 2.64919188 -12.86023957 2.64919188 -14 4 C-22.96714451 5.04962241 -31.98375128 5.13479442 -41 5 C-40.67 4.01 -40.34 3.02 -40 2 C-27.95701251 -2.01432916 -12.55717315 -0.11905138 0 0 Z " fill="#E7D658" transform="translate(159,88)"/>
<path d="M0 0 C0.66 0 1.32 0 2 0 C2.55244577 6.38381784 1.71746729 12.1417262 0.1875 18.3125 C0.02217773 18.99376953 -0.14314453 19.67503906 -0.31347656 20.37695312 C-1.3455396 24.33027935 -2.56619257 27.69743192 -5 31 C-5.66 31 -6.32 31 -7 31 C-7.4216643 23.83170685 -6.42049283 16.78335646 -4 10 C-3.01 9.67 -2.02 9.34 -1 9 C-0.67 6.03 -0.34 3.06 0 0 Z " fill="#DF7333" transform="translate(84,115)"/>
<path d="M0 0 C-3.03936695 4.55905042 -7.27261798 4.57444123 -12.421875 5.83984375 C-18.02096024 7.65526768 -22.02685621 10.72122977 -26 15 C-26.99 14.67 -27.98 14.34 -29 14 C-29 11.8125 -29 11.8125 -28 9 C-20.75676482 2.3719437 -9.60278941 -0.73867611 0 0 Z " fill="#C41E23" transform="translate(62,98)"/>
<path d="M0 0 C0.33 0 0.66 0 1 0 C0.19148936 20.53191489 0.19148936 20.53191489 -2 30 C-3.32 29.67 -4.64 29.34 -6 29 C-5.42247289 19.06255081 -3.92443264 9.20797614 0 0 Z " fill="#E08932" transform="translate(97,55)"/>
<path d="M0 0 C3.91723986 -0.06561541 7.51168315 0.10004122 11.33203125 1.0859375 C11.33203125 1.4159375 11.33203125 1.7459375 11.33203125 2.0859375 C3.95170551 4.64107173 -3.5534131 4.74752271 -11.30273438 5.12109375 C-12.34751953 5.18941406 -13.39230469 5.25773437 -14.46875 5.328125 C-15.41919189 5.3782373 -16.36963379 5.42834961 -17.34887695 5.47998047 C-19.8441682 5.85330148 -19.8441682 5.85330148 -20.99291992 8.13330078 C-21.21568604 8.7776709 -21.43845215 9.42204102 -21.66796875 10.0859375 C-22.04296875 7.8359375 -22.04296875 7.8359375 -21.66796875 5.0859375 C-15.93791803 -0.80782896 -7.70130926 0.2480656 0 0 Z " fill="#E0A14A" transform="translate(112.66796875,89.9140625)"/>
<path d="M0 0 C0.99 0.33 1.98 0.66 3 1 C1.88583897 5.12800669 0.75685526 9.25181297 -0.375 13.375 C-0.85066406 15.1384375 -0.85066406 15.1384375 -1.3359375 16.9375 C-1.6453125 18.05898437 -1.9546875 19.18046875 -2.2734375 20.3359375 C-2.55622559 21.37282715 -2.83901367 22.4097168 -3.13037109 23.47802734 C-4 26 -4 26 -6 28 C-6.33 27.01 -6.66 26.02 -7 25 C-7.33 24.34 -7.66 23.68 -8 23 C-7.32756898 20.20410259 -6.58559538 17.4968467 -5.75 14.75 C-5.42322266 13.62271484 -5.42322266 13.62271484 -5.08984375 12.47265625 C-3.77410048 8.06376213 -2.2008063 4.0650187 0 0 Z " fill="#CB653A" transform="translate(83,168)"/>
<path d="M0 0 C-0.33 0.99 -0.66 1.98 -1 3 C-4.93548722 3.69937473 -8.87363031 4.38245583 -12.8125 5.0625 C-13.93205078 5.26166016 -15.05160156 5.46082031 -16.20507812 5.66601562 C-17.81479492 5.94155273 -17.81479492 5.94155273 -19.45703125 6.22265625 C-20.44678955 6.39547119 -21.43654785 6.56828613 -22.45629883 6.74633789 C-25 7 -25 7 -28 6 C-28.66 5.34 -29.32 4.68 -30 4 C-26.31425142 3.32340219 -22.62616051 2.66052239 -18.9375 2 C-17.89916016 1.80921875 -16.86082031 1.6184375 -15.79101562 1.421875 C-10.44515523 0.47149982 -5.43040936 -0.24648667 0 0 Z " fill="#C67848" transform="translate(89,93)"/>
<path d="M0 0 C0.33 0 0.66 0 1 0 C1.58606953 12.524523 -0.19766144 24.6360853 -2 37 C-2.33 37 -2.66 37 -3 37 C-3 32.71 -3 28.42 -3 24 C-3.66 25.32 -4.32 26.64 -5 28 C-4.40711812 20.65835626 -3.761788 13.32613141 -3 6 C-2.01 7.485 -2.01 7.485 -1 9 C-0.67 6.03 -0.34 3.06 0 0 Z " fill="#DC9C45" transform="translate(100,32)"/>
<path d="M0 0 C0.33 0 0.66 0 1 0 C0.33951685 6.77864289 -0.74691622 13.38230956 -2.0625 20.0625 C-2.24876953 21.02349609 -2.43503906 21.98449219 -2.62695312 22.97460938 C-3.08145562 25.31704531 -3.53918902 27.65879844 -4 30 C-4.33 30 -4.66 30 -5 30 C-5.33 27.36 -5.66 24.72 -6 22 C-6.66 28.27 -7.32 34.54 -8 41 C-8.33 41 -8.66 41 -9 41 C-9.50892859 30.33134877 -7.97003514 20.44822209 -6 10 C-5.67 10 -5.34 10 -5 10 C-5 12.64 -5 15.28 -5 18 C-4.34 18 -3.68 18 -3 18 C-2.95101562 17.3709375 -2.90203125 16.741875 -2.8515625 16.09375 C-2.36564801 10.53086686 -1.49446374 5.38006948 0 0 Z " fill="#C85E3B" transform="translate(74,166)"/>
<path d="M0 0 C7.875 7.59375 7.875 7.59375 8.25 11.8125 C8.1675 12.534375 8.085 13.25625 8 14 C6.68 14.33 5.36 14.66 4 15 C1.1496974 11.79054398 0.56548301 9.50011452 0.3125 5.25 C0.24675781 4.26515625 0.18101562 3.2803125 0.11328125 2.265625 C0.07589844 1.51796875 0.03851563 0.7703125 0 0 Z " fill="#F2E73F" transform="translate(149,143)"/>
<path d="M0 0 C1.32 0.33 2.64 0.66 4 1 C4.80384842 7.22982527 1.35019791 12.97470313 -2 18 C-3 17 -3 17 -3.25 14.0625 C-3.20894901 9.13638127 -1.56342486 4.62513188 0 0 Z " fill="#E8EE66" transform="translate(169,27)"/>
<path d="M0 0 C0.33 0 0.66 0 1 0 C1.24795864 5.77278706 0.33663941 10.83354896 -1 16.4375 C-1.19078125 17.26443359 -1.3815625 18.09136719 -1.578125 18.94335938 C-2.04528437 20.96382366 -2.52169374 22.98214547 -3 25 C-3.66 25 -4.32 25 -5 25 C-5.20400323 19.14971371 -4.58102948 14.20050045 -3.0625 8.5625 C-2.78889648 7.48452148 -2.78889648 7.48452148 -2.50976562 6.38476562 C-1.15055006 1.15055006 -1.15055006 1.15055006 0 0 Z " fill="#E54615" transform="translate(74,159)"/>
<path d="M0 0 C1.32 0 2.64 0 4 0 C4.22786458 2.01822917 4.45572917 4.03645833 4.68359375 6.0546875 C4.91292961 8.07404316 4.91292961 8.07404316 6 10 C5.071875 10.12375 5.071875 10.12375 4.125 10.25 C1.81562433 10.81258459 1.81562433 10.81258459 0.75 13.0625 C0.5025 13.701875 0.255 14.34125 0 15 C-2.72580143 10.45699761 -1.63313152 6.89047526 -0.5078125 2.01171875 C-0.34023437 1.34785156 -0.17265625 0.68398437 0 0 Z " fill="#E6892F" transform="translate(90,84)"/>
<path d="M0 0 C0.33 0 0.66 0 1 0 C1.11138159 5.45769811 0.91657981 10.61509359 0 16 C1.32 16.33 2.64 16.66 4 17 C3.67 17.99 3.34 18.98 3 20 C1.35 20 -0.3 20 -2 20 C-2.19266055 6.96330275 -2.19266055 6.96330275 -1 1 C-0.67 0.67 -0.34 0.34 0 0 Z " fill="#DD3E14" transform="translate(68,187)"/>
<path d="M0 0 C-2.5061033 3.75915495 -3.81949803 3.72563254 -8.125 4.6875 C-9.76855469 5.06455078 -9.76855469 5.06455078 -11.4453125 5.44921875 C-12.70988281 5.72185547 -12.70988281 5.72185547 -14 6 C-14 5.34 -14 4.68 -14 4 C-15.32 3.67 -16.64 3.34 -18 3 C-11.79485526 0.86380263 -6.57315478 -0.36517527 0 0 Z " fill="#B94938" transform="translate(62,98)"/>
<path d="M0 0 C2.30394737 4.1008484 1.98940658 6.35739992 1 11 C0.08286838 14.03136137 -0.92589904 17.02088979 -2 20 C-2.33 20 -2.66 20 -3 20 C-3.40850553 12.91923749 -1.90420731 6.80074041 0 0 Z " fill="#E0E777" transform="translate(165,40)"/>
<path d="M0 0 C0.99 0.33 1.98 0.66 3 1 C2.57835981 2.98260599 2.13721222 4.96107245 1.6875 6.9375 C1.44386719 8.03964844 1.20023437 9.14179688 0.94921875 10.27734375 C0.63597656 11.17582031 0.32273437 12.07429687 0 13 C-0.99 13.33 -1.98 13.66 -3 14 C-3.29341888 8.32723489 -3.00559652 5.00932754 0 0 Z " fill="#D5642B" transform="translate(83,168)"/>
<path d="M0 0 C0.33 0 0.66 0 1 0 C0.67 4.95 0.34 9.9 0 15 C-0.99 15.33 -1.98 15.66 -3 16 C-3.37952295 9.80112515 -2.8352113 5.5522888 0 0 Z " fill="#E68F2C" transform="translate(97,55)"/>
<path d="M0 0 C3.09662706 5.18089527 1.81230936 10.54921211 0.48046875 16.20703125 C0.02499418 17.81593783 -0.48160352 19.41025079 -1 21 C-1.33 21 -1.66 21 -2 21 C-1.43393721 16.30976546 -0.81462495 11.65499974 0 7 C-0.66 7 -1.32 7 -2 7 C-1.125 1.125 -1.125 1.125 0 0 Z " fill="#E1843B" transform="translate(89,95)"/>
<path d="M0 0 C1.67542976 0.28604898 3.34385343 0.61781233 5 1 C6.29235715 5.91502758 6.11135517 10.77290102 6.0625 15.8125 C6.05798828 16.69615234 6.05347656 17.57980469 6.04882812 18.49023438 C6.03709866 20.66018559 6.01916495 22.83010172 6 25 C5.67 25 5.34 25 5 25 C4.67 17.41 4.34 9.82 4 2 C3.01 2 2.02 2 1 2 C0.67 2.99 0.34 3.98 0 5 C-0.5625 3.0625 -0.5625 3.0625 -1 1 C-0.67 0.67 -0.34 0.34 0 0 Z " fill="#E0A956" transform="translate(96,7)"/>
<path d="M0 0 C-0.33 2.64 -0.66 5.28 -1 8 C-1.99 8 -2.98 8 -4 8 C-4.66 9.98 -5.32 11.96 -6 14 C-7.43343546 11.13312908 -6.56303792 9.49436317 -5.75 6.4375 C-5.49734375 5.44621094 -5.2446875 4.45492187 -4.984375 3.43359375 C-4.65953125 2.63050781 -4.3346875 1.82742187 -4 1 C-1 0 -1 0 0 0 Z " fill="#CE723A" transform="translate(87,160)"/>
<path d="M0 0 C0.33 0 0.66 0 1 0 C1 1.65 1 3.3 1 5 C1.66 5 2.32 5 3 5 C3.33 3.68 3.66 2.36 4 1 C5.45606519 5.52092968 4.27032841 8.51648796 3 13 C2.71125 12.360625 2.4225 11.72125 2.125 11.0625 C1.17176549 8.84793921 1.17176549 8.84793921 -1 8 C-0.67 5.36 -0.34 2.72 0 0 Z " fill="#DF7639" transform="translate(76,141)"/>
<path d="M0 0 C0.99 0.33 1.98 0.66 3 1 C2.34 4.96 1.68 8.92 1 13 C-1.3638665 8.27226701 -1.25393971 6.16344069 -1 1 C-0.67 0.67 -0.34 0.34 0 0 Z " fill="#EC7813" transform="translate(92,119)"/>
<path d="M0 0 C0.66 0 1.32 0 2 0 C2.28571429 7.42857143 2.28571429 7.42857143 0 11 C-0.66 11 -1.32 11 -2 11 C-2 8.36 -2 5.72 -2 3 C-1.34 3 -0.68 3 0 3 C0 2.01 0 1.02 0 0 Z " fill="#E65D1B" transform="translate(79,135)"/>
<path d="M0 0 C0.99 0.33 1.98 0.66 3 1 C2.125 6.75 2.125 6.75 1 9 C0.34 9 -0.32 9 -1 9 C-1.09765625 2.84765625 -1.09765625 2.84765625 -1 1 C-0.67 0.67 -0.34 0.34 0 0 Z " fill="#E55719" transform="translate(75,149)"/>
<path d="M0 0 C0.66 0 1.32 0 2 0 C1.88557539 1.60495567 1.75805306 3.20898119 1.625 4.8125 C1.55539063 5.70582031 1.48578125 6.59914063 1.4140625 7.51953125 C1 10 1 10 -1 13 C-2.07310858 9.72814447 -1.89263102 7.57052408 -1.0625 4.25 C-0.86785156 3.45078125 -0.67320312 2.6515625 -0.47265625 1.828125 C-0.31667969 1.22484375 -0.16070312 0.6215625 0 0 Z " fill="#D8D890" transform="translate(153,92)"/>
<path d="M0 0 C0.33 0.99 0.66 1.98 1 3 C1.99 2.67 2.98 2.34 4 2 C3.67 5.3 3.34 8.6 3 12 C2.67 12 2.34 12 2 12 C1.67 10.02 1.34 8.04 1 6 C0.67 7.65 0.34 9.3 0 11 C-0.33 11 -0.66 11 -1 11 C-0.67 7.37 -0.34 3.74 0 0 Z " fill="#DF9645" transform="translate(93,68)"/>
<path d="M0 0 C0 0.66 0 1.32 0 2 C-3.465 3.485 -3.465 3.485 -7 5 C-7 4.34 -7 3.68 -7 3 C-7.99 2.67 -8.98 2.34 -10 2 C-6.5980513 -0.09350689 -3.94727588 -0.17942163 0 0 Z " fill="#B82C2E" transform="translate(48,102)"/>
<path d="M0 0 C0.33 0 0.66 0 1 0 C1.33 4.29 1.66 8.58 2 13 C1.01 12.67 0.02 12.34 -1 12 C-0.67 8.04 -0.34 4.08 0 0 Z " fill="#D5522C" transform="translate(68,176)"/>
<path d="M0 0 C0.66 0.33 1.32 0.66 2 1 C2 2.65 2 4.3 2 6 C0.68 6.33 -0.64 6.66 -2 7 C-2.66 5.68 -3.32 4.36 -4 3 C-3.01 3.33 -2.02 3.66 -1 4 C-0.67 2.68 -0.34 1.36 0 0 Z " fill="#F6EE69" transform="translate(155,151)"/>
<path d="M0 0 C0.33 0 0.66 0 1 0 C1.19622241 4.21878192 0.80230168 7.17010894 -1 11 C-1.33 11 -1.66 11 -2 11 C-1.85957123 9.35369672 -1.71250671 7.70795821 -1.5625 6.0625 C-1.48128906 5.14597656 -1.40007812 4.22945312 -1.31640625 3.28515625 C-1 1 -1 1 0 0 Z " fill="#E3711F" transform="translate(90,138)"/>
<path d="M0 0 C0.66 0 1.32 0 2 0 C1.67 2.97 1.34 5.94 1 9 C0.34 9 -0.32 9 -1 9 C-0.67 6.03 -0.34 3.06 0 0 Z " fill="#E56819" transform="translate(84,115)"/>
<path d="M0 0 C9.41002278 -0.18451025 9.41002278 -0.18451025 14 1 C14 1.33 14 1.66 14 2 C11.36 2.33 8.72 2.66 6 3 C6 2.34 6 1.68 6 1 C4.02 1 2.04 1 0 1 C0 0.67 0 0.34 0 0 Z " fill="#DFB34D" transform="translate(110,90)"/>
<path d="M0 0 C2.31 0 4.62 0 7 0 C6.01 1.485 6.01 1.485 5 3 C2.375 3.1875 2.375 3.1875 0 3 C0 2.01 0 1.02 0 0 Z " fill="#B6553A" transform="translate(55,98)"/>
<path d="M0 0 C0.33 0 0.66 0 1 0 C1.05399736 1.45792884 1.09279177 2.91642712 1.125 4.375 C1.14820312 5.18710937 1.17140625 5.99921875 1.1953125 6.8359375 C1 9 1 9 -1 11 C-2.0257259 6.58937864 -2.03684712 4.07369424 0 0 Z " fill="#E89B2A" transform="translate(99,32)"/>
<path d="M0 0 C2.125 0.375 2.125 0.375 4 1 C3.34 1.66 2.68 2.32 2 3 C1.30251417 4.31747324 0.63040043 5.64914193 0 7 C-0.66 5.35 -1.32 3.7 -2 2 C-1.34 1.34 -0.68 0.68 0 0 Z " fill="#E77312" transform="translate(90,92)"/>
</svg>
