<svg xmlns="http://www.w3.org/2000/svg" xmlns:xlink="http://www.w3.org/1999/xlink" width="100px" height="75px" viewBox="0 0 100 75" version="1.1">
<g id="surface1">

<path style="fill-rule: nonzero; fill: rgb(0, 0, 0); fill-opacity: 1; opacity: 1; visibility: visible;" d="M 50.652344 13.1875 C 50.90625 13.269531 51.164062 13.332031 51.425781 13.398438 C 51.773438 13.488281 52.121094 13.585938 52.46875 13.695312 C 53.191406 13.917969 53.925781 14.109375 54.660156 14.296875 C 54.949219 14.371094 55.234375 14.457031 55.523438 14.546875 C 55.773438 14.621094 56.023438 14.683594 56.277344 14.75 C 56.675781 14.851562 57.066406 14.960938 57.449219 15.101562 C 57.449219 15.140625 57.449219 15.183594 57.449219 15.226562 C 57.457031 15.585938 57.484375 15.808594 57.746094 16.0625 C 57.78125 16.089844 57.816406 16.121094 57.851562 16.148438 C 57.882812 16.179688 57.914062 16.207031 57.949219 16.238281 C 58.269531 16.503906 58.632812 16.703125 59 16.898438 C 59.03125 16.917969 59.0625 16.933594 59.09375 16.949219 C 59.5 17.167969 59.917969 17.351562 60.351562 17.511719 C 60.398438 17.53125 60.449219 17.550781 60.496094 17.566406 C 60.613281 17.613281 60.730469 17.65625 60.851562 17.699219 C 60.851562 19.207031 60.855469 20.714844 60.859375 22.226562 C 60.859375 22.402344 60.859375 22.582031 60.859375 22.761719 C 60.859375 22.796875 60.859375 22.832031 60.859375 22.867188 C 60.859375 23.441406 60.859375 24.015625 60.863281 24.589844 C 60.863281 25.179688 60.863281 25.769531 60.863281 26.359375 C 60.863281 26.6875 60.863281 27.019531 60.867188 27.351562 C 60.867188 27.664062 60.867188 27.976562 60.867188 28.289062 C 60.867188 28.402344 60.867188 28.515625 60.867188 28.628906 C 60.882812 31.40625 60.027344 34.015625 58.300781 36.199219 C 58.25 36.265625 58.25 36.265625 58.199219 36.328125 C 57.996094 36.589844 57.78125 36.839844 57.554688 37.082031 C 57.464844 37.183594 57.378906 37.285156 57.289062 37.386719 C 56.894531 37.839844 56.460938 38.265625 56 38.648438 C 55.957031 38.6875 55.910156 38.726562 55.863281 38.769531 C 54.246094 40.179688 52.335938 41.34375 50.375 42.214844 C 50.332031 42.234375 50.289062 42.253906 50.246094 42.273438 C 49.9375 42.40625 49.742188 42.425781 49.421875 42.300781 C 49.265625 42.234375 49.113281 42.164062 48.960938 42.089844 C 48.902344 42.0625 48.84375 42.039062 48.785156 42.011719 C 47.222656 41.269531 45.757812 40.375 44.398438 39.300781 C 44.355469 39.261719 44.355469 39.261719 44.304688 39.226562 C 43.796875 38.824219 43.316406 38.402344 42.851562 37.949219 C 42.816406 37.917969 42.785156 37.886719 42.75 37.855469 C 42.355469 37.472656 41.988281 37.082031 41.648438 36.648438 C 41.578125 36.566406 41.507812 36.480469 41.433594 36.394531 C 40.140625 34.800781 39.15625 32.839844 38.871094 30.796875 C 38.855469 30.699219 38.839844 30.601562 38.824219 30.503906 C 38.730469 29.902344 38.738281 29.300781 38.738281 28.695312 C 38.738281 28.574219 38.738281 28.453125 38.738281 28.335938 C 38.738281 28.042969 38.738281 27.753906 38.738281 27.460938 C 38.742188 27.121094 38.742188 26.78125 38.742188 26.445312 C 38.742188 25.839844 38.742188 25.234375 38.742188 24.632812 C 38.742188 24.042969 38.742188 23.457031 38.746094 22.871094 C 38.746094 22.835938 38.746094 22.796875 38.746094 22.761719 C 38.746094 22.578125 38.746094 22.398438 38.746094 22.214844 C 38.746094 20.710938 38.746094 19.207031 38.75 17.699219 C 38.777344 17.6875 38.808594 17.675781 38.835938 17.664062 C 38.96875 17.613281 39.101562 17.5625 39.230469 17.507812 C 39.277344 17.492188 39.320312 17.472656 39.367188 17.453125 C 39.679688 17.328125 39.988281 17.199219 40.292969 17.054688 C 40.335938 17.03125 40.378906 17.011719 40.425781 16.988281 C 41.035156 16.691406 41.714844 16.328125 42.101562 15.75 C 42.121094 15.589844 42.121094 15.589844 42.132812 15.414062 C 42.136719 15.355469 42.140625 15.296875 42.140625 15.238281 C 42.144531 15.167969 42.144531 15.167969 42.148438 15.101562 C 42.492188 14.984375 42.835938 14.878906 43.179688 14.785156 C 43.234375 14.769531 43.289062 14.753906 43.34375 14.738281 C 43.71875 14.636719 44.089844 14.535156 44.460938 14.441406 C 44.800781 14.355469 45.132812 14.261719 45.46875 14.15625 C 46.191406 13.933594 46.925781 13.742188 47.660156 13.554688 C 47.902344 13.488281 48.144531 13.421875 48.386719 13.347656 C 49.210938 13.089844 49.808594 12.910156 50.652344 13.1875 Z M 50.652344 13.1875 " data-index="1"></path>
<path style="fill-rule: nonzero; fill: rgb(230, 69, 19); fill-opacity: 1; opacity: 1; visibility: visible; stroke: rgb(230, 69, 19);" d="M 50.652344 13.1875 C 50.90625 13.269531 51.164062 13.332031 51.425781 13.398438 C 51.773438 13.488281 52.121094 13.585938 52.46875 13.695312 C 53.191406 13.917969 53.925781 14.109375 54.660156 14.296875 C 54.949219 14.371094 55.234375 14.457031 55.523438 14.546875 C 55.773438 14.621094 56.023438 14.683594 56.277344 14.75 C 56.675781 14.851562 57.066406 14.960938 57.449219 15.101562 C 57.449219 15.140625 57.449219 15.183594 57.449219 15.226562 C 57.457031 15.585938 57.484375 15.808594 57.746094 16.0625 C 57.78125 16.089844 57.816406 16.121094 57.851562 16.148438 C 57.882812 16.179688 57.914062 16.207031 57.949219 16.238281 C 58.269531 16.503906 58.632812 16.703125 59 16.898438 C 59.03125 16.917969 59.0625 16.933594 59.09375 16.949219 C 59.5 17.167969 59.917969 17.351562 60.351562 17.511719 C 60.398438 17.53125 60.449219 17.550781 60.496094 17.566406 C 60.613281 17.613281 60.730469 17.65625 60.851562 17.699219 C 60.851562 19.207031 60.855469 20.714844 60.859375 22.226562 C 60.859375 22.402344 60.859375 22.582031 60.859375 22.761719 C 60.859375 22.796875 60.859375 22.832031 60.859375 22.867188 C 60.859375 23.441406 60.859375 24.015625 60.863281 24.589844 C 60.863281 25.179688 60.863281 25.769531 60.863281 26.359375 C 60.863281 26.6875 60.863281 27.019531 60.867188 27.351562 C 60.867188 27.664062 60.867188 27.976562 60.867188 28.289062 C 60.867188 28.402344 60.867188 28.515625 60.867188 28.628906 C 60.882812 31.40625 60.027344 34.015625 58.300781 36.199219 C 58.25 36.265625 58.25 36.265625 58.199219 36.328125 C 57.996094 36.589844 57.78125 36.839844 57.554688 37.082031 C 57.464844 37.183594 57.378906 37.285156 57.289062 37.386719 C 56.894531 37.839844 56.460938 38.265625 56 38.648438 C 55.957031 38.6875 55.910156 38.726562 55.863281 38.769531 C 54.246094 40.179688 52.335938 41.34375 50.375 42.214844 C 50.332031 42.234375 50.289062 42.253906 50.246094 42.273438 C 49.9375 42.40625 49.742188 42.425781 49.421875 42.300781 C 49.265625 42.234375 49.113281 42.164062 48.960938 42.089844 C 48.902344 42.0625 48.84375 42.039062 48.785156 42.011719 C 47.222656 41.269531 45.757812 40.375 44.398438 39.300781 C 44.355469 39.261719 44.355469 39.261719 44.304688 39.226562 C 43.796875 38.824219 43.316406 38.402344 42.851562 37.949219 C 42.816406 37.917969 42.785156 37.886719 42.75 37.855469 C 42.355469 37.472656 41.988281 37.082031 41.648438 36.648438 C 41.578125 36.566406 41.507812 36.480469 41.433594 36.394531 C 40.140625 34.800781 39.15625 32.839844 38.871094 30.796875 C 38.855469 30.699219 38.839844 30.601562 38.824219 30.503906 C 38.730469 29.902344 38.738281 29.300781 38.738281 28.695312 C 38.738281 28.574219 38.738281 28.453125 38.738281 28.335938 C 38.738281 28.042969 38.738281 27.753906 38.738281 27.460938 C 38.742188 27.121094 38.742188 26.78125 38.742188 26.445312 C 38.742188 25.839844 38.742188 25.234375 38.742188 24.632812 C 38.742188 24.042969 38.742188 23.457031 38.746094 22.871094 C 38.746094 22.835938 38.746094 22.796875 38.746094 22.761719 C 38.746094 22.578125 38.746094 22.398438 38.746094 22.214844 C 38.746094 20.710938 38.746094 19.207031 38.75 17.699219 C 38.777344 17.6875 38.808594 17.675781 38.835938 17.664062 C 38.96875 17.613281 39.101562 17.5625 39.230469 17.507812 C 39.277344 17.492188 39.320312 17.472656 39.367188 17.453125 C 39.679688 17.328125 39.988281 17.199219 40.292969 17.054688 C 40.335938 17.03125 40.378906 17.011719 40.425781 16.988281 C 41.035156 16.691406 41.714844 16.328125 42.101562 15.75 C 42.121094 15.589844 42.121094 15.589844 42.132812 15.414062 C 42.136719 15.355469 42.140625 15.296875 42.140625 15.238281 C 42.144531 15.167969 42.144531 15.167969 42.148438 15.101562 C 42.492188 14.984375 42.835938 14.878906 43.179688 14.785156 C 43.234375 14.769531 43.289062 14.753906 43.34375 14.738281 C 43.71875 14.636719 44.089844 14.535156 44.460938 14.441406 C 44.800781 14.355469 45.132812 14.261719 45.46875 14.15625 C 46.191406 13.933594 46.925781 13.742188 47.660156 13.554688 C 47.902344 13.488281 48.144531 13.421875 48.386719 13.347656 C 49.210938 13.089844 49.808594 12.910156 50.652344 13.1875 Z M 49.070312 14.539062 C 48.984375 14.566406 48.894531 14.59375 48.804688 14.621094 C 48.742188 14.640625 48.742188 14.640625 48.675781 14.664062 C 48.5 14.714844 48.328125 14.757812 48.148438 14.800781 C 47.859375 14.871094 47.570312 14.953125 47.285156 15.039062 C 46.828125 15.179688 46.367188 15.300781 45.90625 15.417969 C 45.503906 15.523438 45.105469 15.628906 44.710938 15.746094 C 44.515625 15.804688 44.324219 15.855469 44.128906 15.894531 C 43.78125 15.957031 43.78125 15.957031 43.503906 16.15625 C 43.429688 16.28125 43.429688 16.28125 43.367188 16.414062 C 42.832031 17.480469 41.402344 18.042969 40.386719 18.507812 C 40.300781 18.542969 40.300781 18.542969 40.25 18.601562 C 40.246094 18.742188 40.242188 18.878906 40.242188 19.019531 C 40.242188 19.066406 40.242188 19.109375 40.242188 19.15625 C 40.242188 19.308594 40.242188 19.457031 40.242188 19.609375 C 40.242188 19.71875 40.242188 19.824219 40.238281 19.933594 C 40.238281 20.289062 40.238281 20.644531 40.238281 21 C 40.238281 21.121094 40.238281 21.246094 40.238281 21.367188 C 40.238281 21.945312 40.234375 22.523438 40.234375 23.097656 C 40.234375 23.761719 40.234375 24.429688 40.230469 25.09375 C 40.230469 25.605469 40.230469 26.121094 40.230469 26.632812 C 40.230469 26.941406 40.230469 27.246094 40.226562 27.554688 C 40.226562 27.84375 40.226562 28.132812 40.226562 28.421875 C 40.226562 28.527344 40.226562 28.632812 40.226562 28.738281 C 40.21875 29.511719 40.308594 30.242188 40.449219 31 C 40.457031 31.042969 40.464844 31.085938 40.472656 31.132812 C 40.945312 33.664062 42.675781 36.101562 44.667969 37.691406 C 44.785156 37.789062 44.898438 37.886719 45.007812 37.992188 C 46.097656 38.960938 47.390625 39.722656 48.667969 40.414062 C 48.722656 40.445312 48.78125 40.476562 48.835938 40.507812 C 48.992188 40.589844 49.144531 40.667969 49.300781 40.75 C 49.363281 40.785156 49.363281 40.785156 49.429688 40.820312 C 49.65625 40.933594 49.65625 40.933594 49.90625 40.921875 C 49.953125 40.898438 50 40.875 50.050781 40.851562 C 50.109375 40.824219 50.164062 40.796875 50.222656 40.769531 C 50.289062 40.738281 50.351562 40.703125 50.414062 40.671875 C 50.46875 40.644531 50.46875 40.644531 50.519531 40.617188 C 50.59375 40.582031 50.667969 40.542969 50.742188 40.503906 C 50.84375 40.453125 50.945312 40.402344 51.050781 40.351562 C 51.941406 39.894531 52.800781 39.351562 53.601562 38.75 C 53.632812 38.726562 53.667969 38.699219 53.699219 38.675781 C 54.96875 37.726562 56.148438 36.671875 57.101562 35.398438 C 57.121094 35.371094 57.144531 35.34375 57.164062 35.3125 C 58.683594 33.277344 59.359375 31 59.355469 28.476562 C 59.355469 28.367188 59.355469 28.261719 59.355469 28.152344 C 59.355469 27.859375 59.355469 27.570312 59.355469 27.277344 C 59.355469 26.972656 59.355469 26.667969 59.355469 26.363281 C 59.355469 25.785156 59.355469 25.207031 59.355469 24.628906 C 59.351562 23.972656 59.351562 23.316406 59.351562 22.65625 C 59.351562 21.304688 59.351562 19.953125 59.351562 18.601562 C 59.238281 18.542969 59.125 18.488281 59.011719 18.429688 C 58.980469 18.414062 58.949219 18.398438 58.917969 18.382812 C 58.757812 18.304688 58.59375 18.222656 58.433594 18.144531 C 57.546875 17.71875 56.554688 17.128906 56.085938 16.226562 C 55.984375 16.078125 55.933594 16.050781 55.769531 16 C 55.71875 15.980469 55.671875 15.964844 55.621094 15.949219 C 55.285156 15.851562 54.949219 15.761719 54.609375 15.675781 C 54.464844 15.636719 54.316406 15.597656 54.171875 15.5625 C 54.136719 15.550781 54.101562 15.542969 54.0625 15.53125 C 53.722656 15.445312 53.386719 15.347656 53.050781 15.25 C 52.902344 15.207031 52.757812 15.167969 52.613281 15.128906 C 52.535156 15.105469 52.457031 15.085938 52.382812 15.0625 C 52.324219 15.046875 52.324219 15.046875 52.265625 15.03125 C 52.078125 14.980469 51.886719 14.925781 51.699219 14.875 C 51.46875 14.8125 51.238281 14.746094 51.003906 14.683594 C 50.964844 14.671875 50.925781 14.660156 50.882812 14.648438 C 50.808594 14.628906 50.730469 14.605469 50.65625 14.585938 C 50.621094 14.574219 50.585938 14.566406 50.550781 14.554688 C 50.515625 14.546875 50.480469 14.539062 50.445312 14.527344 C 50.355469 14.5 50.265625 14.472656 50.175781 14.441406 C 49.777344 14.347656 49.453125 14.410156 49.070312 14.539062 Z M 49.070312 14.539062 " data-index="2"></path>
<path style="fill-rule: nonzero; fill: rgb(231, 69, 19); fill-opacity: 1; opacity: 1;" d="M 33.464844 48.941406 C 33.816406 49.097656 33.996094 49.367188 34.148438 49.710938 C 34.339844 50.242188 34.3125 50.851562 34.308594 51.40625 C 34.308594 51.480469 34.308594 51.554688 34.308594 51.628906 C 34.308594 51.820312 34.308594 52.011719 34.308594 52.203125 C 34.304688 52.4375 34.304688 52.667969 34.304688 52.898438 C 34.304688 53.25 34.300781 53.601562 34.300781 53.949219 C 35.140625 53.949219 35.984375 53.949219 36.851562 53.949219 C 36.847656 53.542969 36.847656 53.542969 36.84375 53.125 C 36.84375 52.953125 36.84375 52.777344 36.84375 52.605469 C 36.839844 52.332031 36.839844 52.058594 36.839844 51.78125 C 36.835938 51.5625 36.835938 51.339844 36.835938 51.117188 C 36.835938 51.035156 36.835938 50.949219 36.835938 50.867188 C 36.828125 50.300781 36.824219 49.757812 37.199219 49.300781 C 37.527344 48.980469 37.757812 48.882812 38.210938 48.882812 C 38.253906 48.878906 38.292969 48.878906 38.335938 48.878906 C 38.6875 48.875 38.941406 48.964844 39.210938 49.195312 C 39.574219 49.628906 39.65625 50.027344 39.65625 50.582031 C 39.65625 50.625 39.65625 50.667969 39.65625 50.714844 C 39.65625 50.855469 39.65625 51 39.65625 51.144531 C 39.660156 51.246094 39.660156 51.351562 39.660156 51.453125 C 39.660156 51.734375 39.660156 52.015625 39.660156 52.292969 C 39.660156 52.46875 39.660156 52.644531 39.660156 52.820312 C 39.660156 53.367188 39.660156 53.914062 39.660156 54.464844 C 39.664062 55.097656 39.664062 55.726562 39.664062 56.359375 C 39.664062 56.847656 39.667969 57.335938 39.667969 57.828125 C 39.667969 58.117188 39.667969 58.410156 39.667969 58.703125 C 39.667969 58.976562 39.667969 59.25 39.667969 59.527344 C 39.667969 59.628906 39.667969 59.726562 39.667969 59.828125 C 39.671875 60.503906 39.671875 61.117188 39.199219 61.648438 C 38.894531 61.953125 38.511719 61.921875 38.109375 61.925781 C 37.851562 61.921875 37.675781 61.886719 37.449219 61.75 C 37.386719 61.710938 37.386719 61.710938 37.320312 61.671875 C 36.980469 61.328125 36.839844 60.824219 36.835938 60.347656 C 36.839844 60.3125 36.839844 60.277344 36.839844 60.242188 C 36.839844 60.203125 36.839844 60.164062 36.839844 60.125 C 36.839844 60 36.839844 59.871094 36.839844 59.746094 C 36.839844 59.660156 36.839844 59.570312 36.839844 59.484375 C 36.839844 59.253906 36.84375 59.023438 36.84375 58.792969 C 36.84375 58.515625 36.84375 58.238281 36.84375 57.960938 C 36.847656 57.539062 36.847656 57.121094 36.851562 56.699219 C 36.007812 56.699219 35.167969 56.699219 34.300781 56.699219 C 34.300781 56.949219 34.304688 57.203125 34.304688 57.460938 C 34.304688 57.621094 34.308594 57.78125 34.308594 57.941406 C 34.308594 58.195312 34.308594 58.449219 34.3125 58.703125 C 34.3125 58.90625 34.3125 59.113281 34.3125 59.316406 C 34.316406 59.394531 34.316406 59.472656 34.316406 59.546875 C 34.324219 60.246094 34.332031 61.089844 33.824219 61.628906 C 33.527344 61.898438 33.242188 61.917969 32.859375 61.921875 C 32.816406 61.921875 32.773438 61.925781 32.726562 61.925781 C 32.359375 61.929688 32.144531 61.8125 31.867188 61.582031 C 31.457031 61.175781 31.429688 60.542969 31.425781 60.003906 C 31.425781 59.863281 31.425781 59.726562 31.425781 59.589844 C 31.425781 59.488281 31.425781 59.390625 31.425781 59.289062 C 31.425781 59.019531 31.425781 58.75 31.425781 58.480469 C 31.425781 58.195312 31.425781 57.910156 31.425781 57.628906 C 31.425781 57.152344 31.429688 56.675781 31.429688 56.199219 C 31.429688 55.652344 31.429688 55.101562 31.429688 54.554688 C 31.429688 53.96875 31.433594 53.382812 31.433594 52.792969 C 31.433594 52.625 31.433594 52.457031 31.433594 52.289062 C 31.433594 52.027344 31.433594 51.761719 31.433594 51.496094 C 31.433594 51.398438 31.433594 51.300781 31.433594 51.207031 C 31.433594 49.679688 31.433594 49.679688 31.886719 49.210938 C 32.328125 48.816406 32.898438 48.800781 33.464844 48.941406 Z M 33.464844 48.941406 " data-index="3"></path>
<path style="fill-rule: nonzero; fill: rgb(231, 69, 19); fill-opacity: 1; opacity: 1;" d="M 67.011719 48.882812 C 67.054688 48.878906 67.09375 48.878906 67.136719 48.878906 C 67.488281 48.875 67.734375 48.96875 68.007812 49.183594 C 68.515625 49.75 68.480469 50.464844 68.472656 51.175781 C 68.472656 51.277344 68.472656 51.378906 68.476562 51.480469 C 68.476562 51.757812 68.472656 52.035156 68.472656 52.308594 C 68.472656 52.597656 68.472656 52.890625 68.472656 53.179688 C 68.472656 53.664062 68.472656 54.148438 68.46875 54.636719 C 68.46875 55.199219 68.46875 55.757812 68.46875 56.320312 C 68.46875 56.917969 68.46875 57.515625 68.46875 58.117188 C 68.46875 58.289062 68.464844 58.460938 68.464844 58.632812 C 68.464844 58.902344 68.464844 59.171875 68.464844 59.445312 C 68.464844 59.542969 68.464844 59.640625 68.464844 59.742188 C 68.464844 61.164062 68.464844 61.164062 68.066406 61.585938 C 67.75 61.875 67.476562 61.917969 67.058594 61.917969 C 67.015625 61.921875 66.972656 61.921875 66.929688 61.921875 C 66.550781 61.925781 66.292969 61.824219 66.007812 61.574219 C 65.972656 61.535156 65.9375 61.492188 65.898438 61.449219 C 65.871094 61.417969 65.84375 61.386719 65.816406 61.355469 C 65.648438 61.082031 65.625 60.761719 65.601562 60.449219 C 65.585938 60.496094 65.585938 60.496094 65.570312 60.542969 C 65.382812 61.070312 65.058594 61.492188 64.550781 61.75 C 64.230469 61.894531 63.960938 61.925781 63.613281 61.917969 C 63.539062 61.917969 63.539062 61.917969 63.464844 61.917969 C 62.734375 61.902344 62.148438 61.695312 61.605469 61.183594 C 60.863281 60.386719 60.734375 59.449219 60.734375 58.410156 C 60.734375 58.316406 60.734375 58.226562 60.730469 58.132812 C 60.730469 57.941406 60.730469 57.75 60.730469 57.558594 C 60.730469 57.316406 60.730469 57.070312 60.726562 56.828125 C 60.726562 56.640625 60.726562 56.449219 60.726562 56.261719 C 60.726562 56.171875 60.726562 56.082031 60.726562 55.992188 C 60.71875 55.023438 60.886719 54.136719 61.582031 53.414062 C 62.167969 52.851562 62.761719 52.632812 63.570312 52.632812 C 63.617188 52.628906 63.667969 52.628906 63.71875 52.628906 C 64.265625 52.625 64.707031 52.816406 65.101562 53.199219 C 65.285156 53.421875 65.429688 53.636719 65.53125 53.910156 C 65.542969 53.945312 65.554688 53.980469 65.570312 54.015625 C 65.578125 54.042969 65.589844 54.070312 65.601562 54.101562 C 65.601562 54.054688 65.601562 54.007812 65.601562 53.957031 C 65.605469 53.511719 65.609375 53.066406 65.613281 52.621094 C 65.617188 52.394531 65.621094 52.164062 65.621094 51.9375 C 65.621094 51.714844 65.625 51.496094 65.628906 51.273438 C 65.628906 51.1875 65.628906 51.105469 65.628906 51.019531 C 65.640625 49.664062 65.640625 49.664062 66.085938 49.210938 C 66.390625 48.941406 66.609375 48.882812 67.011719 48.882812 Z M 67.011719 48.882812 " data-index="4"></path>
<path style="fill-rule: nonzero; fill: rgb(231, 69, 19); fill-opacity: 1; opacity: 1; visibility: visible;" d="M 48.851562 52.800781 C 49.246094 53.132812 49.417969 53.546875 49.464844 54.054688 C 49.46875 54.226562 49.46875 54.398438 49.46875 54.570312 C 49.46875 54.632812 49.46875 54.699219 49.46875 54.765625 C 49.46875 54.941406 49.46875 55.117188 49.46875 55.292969 C 49.46875 55.476562 49.46875 55.660156 49.46875 55.847656 C 49.46875 56.15625 49.46875 56.464844 49.46875 56.777344 C 49.464844 57.132812 49.464844 57.492188 49.464844 57.847656 C 49.464844 58.195312 49.464844 58.539062 49.464844 58.882812 C 49.464844 59.03125 49.464844 59.175781 49.464844 59.324219 C 49.464844 59.527344 49.464844 59.730469 49.464844 59.9375 C 49.464844 59.996094 49.464844 60.058594 49.464844 60.117188 C 49.460938 60.628906 49.433594 61.195312 49.066406 61.589844 C 48.75 61.875 48.476562 61.917969 48.058594 61.917969 C 48.015625 61.921875 47.972656 61.921875 47.929688 61.921875 C 47.550781 61.925781 47.292969 61.824219 47.007812 61.574219 C 46.699219 61.222656 46.632812 60.914062 46.601562 60.449219 C 46.585938 60.496094 46.585938 60.496094 46.570312 60.542969 C 46.382812 61.070312 46.058594 61.492188 45.550781 61.75 C 45.230469 61.894531 44.960938 61.925781 44.613281 61.917969 C 44.5625 61.917969 44.515625 61.917969 44.464844 61.917969 C 43.734375 61.902344 43.148438 61.695312 42.605469 61.183594 C 41.863281 60.386719 41.734375 59.449219 41.734375 58.410156 C 41.734375 58.316406 41.734375 58.226562 41.730469 58.132812 C 41.730469 57.941406 41.730469 57.75 41.730469 57.558594 C 41.730469 57.316406 41.730469 57.070312 41.726562 56.828125 C 41.726562 56.640625 41.726562 56.449219 41.726562 56.261719 C 41.726562 56.171875 41.726562 56.082031 41.726562 55.992188 C 41.71875 55.023438 41.902344 54.105469 42.585938 53.375 C 43.167969 52.839844 43.800781 52.621094 44.578125 52.628906 C 44.625 52.628906 44.675781 52.625 44.722656 52.625 C 45.269531 52.625 45.710938 52.820312 46.101562 53.199219 C 46.332031 53.476562 46.492188 53.753906 46.601562 54.101562 C 46.605469 54.0625 46.609375 54.023438 46.613281 53.984375 C 46.6875 53.480469 46.792969 53.148438 47.195312 52.824219 C 47.671875 52.488281 48.359375 52.476562 48.851562 52.800781 Z M 48.851562 52.800781 " data-index="5"></path>
<path style="fill-rule: nonzero; fill: rgb(231, 69, 19); fill-opacity: 1; opacity: 1; visibility: visible;" d="M 58.460938 52.855469 C 58.933594 53.347656 58.964844 53.925781 58.964844 54.574219 C 58.964844 54.640625 58.964844 54.707031 58.964844 54.773438 C 58.96875 54.957031 58.96875 55.136719 58.96875 55.316406 C 58.96875 55.429688 58.96875 55.542969 58.96875 55.65625 C 58.96875 56.054688 58.972656 56.449219 58.972656 56.847656 C 58.972656 57.214844 58.972656 57.582031 58.976562 57.949219 C 58.976562 58.265625 58.976562 58.582031 58.976562 58.902344 C 58.976562 59.089844 58.976562 59.277344 58.980469 59.46875 C 58.980469 59.644531 58.980469 59.824219 58.980469 60 C 58.980469 60.097656 58.980469 60.191406 58.980469 60.285156 C 58.976562 60.742188 58.902344 61.210938 58.597656 61.566406 C 58.28125 61.871094 57.957031 61.917969 57.53125 61.917969 C 57.492188 61.921875 57.449219 61.921875 57.410156 61.921875 C 57.058594 61.925781 56.804688 61.832031 56.539062 61.605469 C 56.25 61.257812 56.128906 60.949219 56.101562 60.5 C 56.074219 60.558594 56.074219 60.558594 56.046875 60.617188 C 55.757812 61.222656 55.441406 61.585938 54.820312 61.855469 C 54.066406 62.046875 53.222656 61.929688 52.558594 61.539062 C 51.914062 61.09375 51.492188 60.445312 51.320312 59.679688 C 51.242188 59.199219 51.238281 58.71875 51.238281 58.230469 C 51.238281 58.1875 51.238281 58.148438 51.238281 58.105469 C 51.238281 57.882812 51.234375 57.664062 51.234375 57.445312 C 51.234375 57.21875 51.234375 56.992188 51.230469 56.769531 C 51.230469 56.59375 51.230469 56.417969 51.230469 56.242188 C 51.230469 56.160156 51.226562 56.074219 51.226562 55.992188 C 51.214844 55 51.417969 54.101562 52.132812 53.359375 C 52.75 52.78125 53.410156 52.609375 54.234375 52.621094 C 54.808594 52.644531 55.21875 52.8125 55.636719 53.210938 C 55.84375 53.464844 55.972656 53.753906 56.101562 54.050781 C 56.105469 54 56.105469 54 56.113281 53.945312 C 56.183594 53.480469 56.324219 53.105469 56.707031 52.8125 C 57.242188 52.460938 57.9375 52.515625 58.460938 52.855469 Z M 58.460938 52.855469 " data-index="6"></path>
<path style="fill-rule: nonzero; fill: rgb(226, 69, 19); fill-opacity: 1; opacity: 1;" d="M 44.375 21.183594 C 44.648438 21.3125 44.808594 21.5 44.964844 21.757812 C 45 21.851562 45 21.851562 45 22.050781 C 45.085938 22.046875 45.085938 22.046875 45.171875 22.046875 C 45.382812 22.042969 45.597656 22.039062 45.808594 22.035156 C 45.898438 22.035156 45.992188 22.035156 46.082031 22.03125 C 46.742188 22.015625 47.117188 22.03125 47.613281 22.492188 C 47.71875 22.59375 47.816406 22.695312 47.917969 22.796875 C 47.992188 22.875 48.070312 22.953125 48.148438 23.03125 C 48.734375 23.621094 48.734375 23.621094 48.753906 24 C 48.753906 24.050781 48.753906 24.050781 48.753906 24.105469 C 48.753906 24.160156 48.753906 24.160156 48.753906 24.21875 C 48.753906 24.277344 48.753906 24.277344 48.753906 24.335938 C 48.753906 24.378906 48.753906 24.417969 48.753906 24.457031 C 48.75 24.554688 48.75 24.652344 48.75 24.75 C 48.996094 24.75 49.246094 24.75 49.5 24.75 C 49.496094 24.691406 49.488281 24.632812 49.484375 24.574219 C 49.484375 24.203125 49.753906 23.925781 50.003906 23.671875 C 50.035156 23.644531 50.0625 23.613281 50.09375 23.585938 C 50.125 23.554688 50.152344 23.523438 50.183594 23.492188 C 50.460938 23.214844 50.699219 23.09375 51.097656 23.085938 C 51.207031 23.085938 51.3125 23.089844 51.421875 23.089844 C 51.476562 23.089844 51.53125 23.09375 51.589844 23.09375 C 51.726562 23.09375 51.863281 23.097656 52 23.101562 C 52.003906 23.054688 52.011719 23.007812 52.015625 22.960938 C 52.074219 22.679688 52.230469 22.488281 52.464844 22.320312 C 52.753906 22.15625 53.019531 22.09375 53.351562 22.148438 C 53.683594 22.246094 53.902344 22.46875 54.101562 22.75 C 54.238281 23.027344 54.253906 23.363281 54.167969 23.660156 C 54.023438 23.984375 53.785156 24.175781 53.480469 24.34375 C 53.152344 24.445312 52.90625 24.441406 52.589844 24.300781 C 52.347656 24.167969 52.171875 24 52.050781 23.75 C 52.03125 23.652344 52.011719 23.550781 52 23.449219 C 51.222656 23.378906 51.222656 23.378906 50.53125 23.679688 C 50.105469 24.0625 50.105469 24.0625 49.902344 24.578125 C 49.902344 24.632812 49.902344 24.691406 49.898438 24.75 C 49.929688 24.75 49.960938 24.746094 49.996094 24.746094 C 50.136719 24.742188 50.28125 24.738281 50.425781 24.734375 C 50.472656 24.730469 50.523438 24.730469 50.574219 24.726562 C 50.914062 24.722656 51.136719 24.777344 51.398438 25 C 51.632812 25.25 51.65625 25.445312 51.65625 25.777344 C 51.65625 25.832031 51.65625 25.832031 51.65625 25.886719 C 51.65625 26.003906 51.652344 26.117188 51.652344 26.234375 C 51.652344 26.3125 51.652344 26.390625 51.652344 26.472656 C 51.652344 26.664062 51.652344 26.855469 51.648438 27.050781 C 51.699219 27.050781 51.746094 27.046875 51.792969 27.046875 C 51.859375 27.046875 51.921875 27.046875 51.984375 27.046875 C 52.046875 27.046875 52.109375 27.042969 52.175781 27.042969 C 52.550781 27.058594 52.753906 27.1875 53.007812 27.457031 C 53.125 27.585938 53.238281 27.71875 53.351562 27.851562 C 53.417969 27.929688 53.484375 28.007812 53.554688 28.085938 C 53.578125 28.117188 53.605469 28.148438 53.632812 28.179688 C 53.765625 28.320312 53.898438 28.3125 54.082031 28.328125 C 54.132812 28.332031 54.179688 28.335938 54.234375 28.339844 C 54.273438 28.34375 54.308594 28.347656 54.351562 28.351562 C 54.351562 28.308594 54.355469 28.265625 54.355469 28.226562 C 54.425781 27.941406 54.574219 27.742188 54.8125 27.570312 C 55.105469 27.40625 55.367188 27.34375 55.699219 27.398438 C 56.066406 27.507812 56.3125 27.777344 56.507812 28.09375 C 56.609375 28.347656 56.589844 28.65625 56.519531 28.914062 C 56.378906 29.230469 56.121094 29.445312 55.832031 29.621094 C 55.453125 29.703125 55.152344 29.667969 54.8125 29.480469 C 54.578125 29.3125 54.425781 29.121094 54.367188 28.835938 C 54.363281 28.792969 54.355469 28.746094 54.351562 28.699219 C 54.308594 28.703125 54.265625 28.707031 54.222656 28.710938 C 53.878906 28.726562 53.636719 28.71875 53.355469 28.503906 C 53.109375 28.265625 52.902344 27.988281 52.699219 27.714844 C 52.542969 27.535156 52.453125 27.503906 52.214844 27.480469 C 52.148438 27.476562 52.082031 27.472656 52.011719 27.46875 C 51.894531 27.460938 51.773438 27.457031 51.648438 27.449219 C 51.648438 27.847656 51.648438 28.242188 51.648438 28.648438 C 51.847656 28.648438 52.046875 28.648438 52.25 28.648438 C 52.535156 28.78125 52.738281 29.035156 52.949219 29.265625 C 52.984375 29.300781 53.019531 29.339844 53.054688 29.375 C 53.332031 29.675781 53.332031 29.675781 53.429688 29.808594 C 53.5 29.898438 53.5625 29.976562 53.648438 30.050781 C 53.800781 30.054688 53.800781 30.054688 53.949219 30 C 54.3125 29.96875 54.617188 29.953125 54.917969 30.175781 C 55.140625 30.378906 55.332031 30.589844 55.367188 30.898438 C 55.371094 31.296875 55.351562 31.59375 55.066406 31.886719 C 54.753906 32.164062 54.53125 32.222656 54.113281 32.214844 C 53.835938 32.1875 53.652344 32.109375 53.460938 31.90625 C 53.21875 31.59375 53.128906 31.335938 53.132812 30.941406 C 53.15625 30.761719 53.21875 30.636719 53.316406 30.488281 C 53.363281 30.398438 53.363281 30.398438 53.3125 30.304688 C 53.246094 30.195312 53.171875 30.109375 53.082031 30.015625 C 53.050781 29.980469 53.019531 29.945312 52.984375 29.910156 C 52.933594 29.855469 52.933594 29.855469 52.882812 29.804688 C 52.523438 29.429688 52.523438 29.429688 52.386719 29.257812 C 52.277344 29.125 52.195312 29.058594 52.027344 29.03125 C 51.980469 29.027344 51.9375 29.023438 51.890625 29.019531 C 51.84375 29.015625 51.800781 29.011719 51.753906 29.007812 C 51.703125 29.003906 51.703125 29.003906 51.648438 29 C 51.648438 29.050781 51.648438 29.097656 51.648438 29.148438 C 51.609375 29.40625 51.441406 29.585938 51.25 29.75 C 51.015625 29.875 50.796875 29.863281 50.539062 29.859375 C 50.480469 29.859375 50.480469 29.859375 50.417969 29.859375 C 50.273438 29.859375 50.128906 29.859375 49.984375 29.855469 C 49.496094 29.851562 49.496094 29.851562 49 29.851562 C 49.015625 30.511719 49.03125 31.171875 49.050781 31.851562 C 49.199219 31.914062 49.347656 31.980469 49.5 32.050781 C 49.617188 32.148438 49.617188 32.148438 49.695312 32.25 C 49.722656 32.28125 49.75 32.316406 49.78125 32.351562 C 49.984375 32.640625 49.984375 32.902344 49.949219 33.25 C 49.863281 33.5625 49.667969 33.777344 49.398438 33.949219 C 49.144531 34.085938 48.886719 34.148438 48.601562 34.101562 C 48.253906 33.980469 47.996094 33.757812 47.800781 33.449219 C 47.703125 33.140625 47.683594 32.769531 47.804688 32.464844 C 47.960938 32.210938 48.167969 32.015625 48.449219 31.898438 C 48.515625 31.898438 48.582031 31.898438 48.648438 31.898438 C 48.648438 31.222656 48.648438 30.546875 48.648438 29.851562 C 48.175781 29.859375 48.175781 29.859375 47.699219 29.871094 C 47.070312 29.878906 47.070312 29.878906 46.832031 29.679688 C 46.613281 29.464844 46.539062 29.21875 46.527344 28.914062 C 46.527344 28.808594 46.527344 28.699219 46.53125 28.59375 C 46.53125 28.535156 46.53125 28.476562 46.53125 28.417969 C 46.53125 28.238281 46.535156 28.054688 46.539062 27.875 C 46.539062 27.75 46.539062 27.628906 46.539062 27.503906 C 46.542969 27.203125 46.546875 26.902344 46.550781 26.601562 C 46.421875 26.601562 46.296875 26.605469 46.167969 26.613281 C 46.132812 26.613281 46.097656 26.613281 46.0625 26.613281 C 45.675781 26.632812 45.460938 26.828125 45.199219 27.101562 C 45.167969 27.132812 45.132812 27.164062 45.097656 27.199219 C 45.042969 27.253906 44.984375 27.3125 44.929688 27.371094 C 44.851562 27.449219 44.769531 27.519531 44.683594 27.585938 C 44.550781 27.699219 44.460938 27.777344 44.4375 27.960938 C 44.433594 28 44.433594 28.042969 44.433594 28.085938 C 44.433594 28.136719 44.433594 28.183594 44.429688 28.234375 C 44.429688 28.285156 44.429688 28.335938 44.429688 28.390625 C 44.429688 28.441406 44.425781 28.496094 44.425781 28.550781 C 44.421875 28.71875 44.421875 28.890625 44.417969 29.058594 C 44.417969 29.175781 44.414062 29.289062 44.414062 29.402344 C 44.40625 29.6875 44.402344 29.96875 44.398438 30.25 C 44.457031 30.261719 44.457031 30.261719 44.515625 30.269531 C 44.796875 30.332031 44.960938 30.492188 45.117188 30.726562 C 45.28125 31.015625 45.300781 31.273438 45.25 31.601562 C 45.160156 31.910156 44.96875 32.125 44.699219 32.300781 C 44.398438 32.449219 44.078125 32.441406 43.75 32.398438 C 43.46875 32.292969 43.238281 32.089844 43.089844 31.828125 C 42.988281 31.507812 42.984375 31.140625 43.09375 30.824219 C 43.230469 30.578125 43.453125 30.378906 43.699219 30.25 C 43.800781 30.230469 43.898438 30.214844 44 30.199219 C 44 30.171875 44 30.144531 44 30.117188 C 43.996094 29.824219 43.992188 29.53125 43.988281 29.238281 C 43.988281 29.128906 43.988281 29.023438 43.984375 28.914062 C 43.984375 28.757812 43.980469 28.597656 43.980469 28.441406 C 43.980469 28.394531 43.976562 28.34375 43.976562 28.296875 C 43.976562 27.921875 44.0625 27.664062 44.304688 27.375 C 44.339844 27.339844 44.375 27.308594 44.414062 27.273438 C 44.453125 27.234375 44.492188 27.195312 44.53125 27.15625 C 44.570312 27.121094 44.609375 27.085938 44.648438 27.050781 C 44.683594 27.019531 44.714844 26.988281 44.75 26.957031 C 44.847656 26.871094 44.949219 26.785156 45.050781 26.699219 C 45.09375 26.664062 45.132812 26.628906 45.175781 26.59375 C 45.519531 26.308594 45.738281 26.183594 46.191406 26.195312 C 46.226562 26.195312 46.261719 26.195312 46.296875 26.195312 C 46.378906 26.195312 46.464844 26.199219 46.550781 26.199219 C 46.546875 26.140625 46.546875 26.085938 46.542969 26.023438 C 46.542969 25.949219 46.539062 25.871094 46.539062 25.792969 C 46.535156 25.753906 46.535156 25.71875 46.53125 25.679688 C 46.527344 25.410156 46.574219 25.261719 46.75 25.050781 C 46.917969 24.878906 47.078125 24.753906 47.328125 24.746094 C 47.375 24.746094 47.425781 24.746094 47.476562 24.746094 C 47.53125 24.746094 47.585938 24.746094 47.640625 24.746094 C 47.695312 24.746094 47.75 24.746094 47.808594 24.746094 C 47.894531 24.746094 47.894531 24.746094 47.980469 24.746094 C 48.121094 24.75 48.261719 24.75 48.398438 24.75 C 48.398438 24.625 48.398438 24.503906 48.394531 24.378906 C 48.394531 24.34375 48.394531 24.308594 48.394531 24.273438 C 48.375 23.753906 47.976562 23.402344 47.628906 23.058594 C 47.59375 23.023438 47.554688 22.984375 47.519531 22.949219 C 47.480469 22.910156 47.445312 22.875 47.410156 22.839844 C 47.378906 22.808594 47.347656 22.777344 47.3125 22.742188 C 47.015625 22.496094 46.800781 22.421875 46.421875 22.429688 C 46.382812 22.429688 46.34375 22.429688 46.300781 22.429688 C 46.175781 22.433594 46.054688 22.433594 45.929688 22.4375 C 45.84375 22.4375 45.757812 22.4375 45.671875 22.441406 C 45.464844 22.441406 45.257812 22.445312 45.050781 22.449219 C 45.039062 22.480469 45.027344 22.511719 45.011719 22.542969 C 44.921875 22.761719 44.84375 22.941406 44.652344 23.097656 C 44.621094 23.125 44.589844 23.152344 44.554688 23.179688 C 44.265625 23.371094 43.988281 23.386719 43.648438 23.351562 C 43.339844 23.261719 43.125 23.066406 42.949219 22.800781 C 42.816406 22.546875 42.746094 22.285156 42.800781 22 C 43.042969 21.28125 43.640625 20.984375 44.375 21.183594 Z M 44.375 21.183594 " data-index="7"></path>
<path style="fill-rule: nonzero; fill: rgb(49, 42, 40); fill-opacity: 1; opacity: 1;" d="M 47.648438 25.085938 C 47.683594 25.085938 47.71875 25.085938 47.753906 25.085938 C 47.867188 25.082031 47.980469 25.082031 48.097656 25.082031 C 48.175781 25.082031 48.257812 25.082031 48.335938 25.082031 C 48.503906 25.082031 48.667969 25.082031 48.835938 25.082031 C 49.050781 25.082031 49.265625 25.082031 49.476562 25.078125 C 49.640625 25.078125 49.808594 25.078125 49.972656 25.078125 C 50.050781 25.078125 50.128906 25.078125 50.207031 25.074219 C 50.316406 25.074219 50.429688 25.074219 50.539062 25.074219 C 50.601562 25.074219 50.664062 25.074219 50.730469 25.074219 C 50.933594 25.105469 51.039062 25.167969 51.199219 25.300781 C 51.328125 25.46875 51.3125 25.640625 51.316406 25.847656 C 51.316406 25.882812 51.316406 25.917969 51.316406 25.953125 C 51.316406 26.066406 51.316406 26.183594 51.316406 26.296875 C 51.316406 26.375 51.316406 26.457031 51.316406 26.535156 C 51.320312 26.703125 51.320312 26.871094 51.320312 27.035156 C 51.320312 27.25 51.320312 27.464844 51.320312 27.675781 C 51.324219 27.84375 51.324219 28.007812 51.324219 28.171875 C 51.324219 28.25 51.324219 28.328125 51.324219 28.40625 C 51.324219 28.519531 51.324219 28.628906 51.324219 28.738281 C 51.324219 28.800781 51.324219 28.863281 51.324219 28.929688 C 51.289062 29.164062 51.203125 29.324219 51.007812 29.46875 C 50.851562 29.515625 50.710938 29.515625 50.546875 29.515625 C 50.511719 29.515625 50.476562 29.515625 50.441406 29.515625 C 50.324219 29.519531 50.207031 29.519531 50.09375 29.519531 C 50.011719 29.519531 49.929688 29.519531 49.851562 29.519531 C 49.679688 29.519531 49.511719 29.519531 49.34375 29.519531 C 49.125 29.523438 48.910156 29.523438 48.691406 29.527344 C 48.523438 29.527344 48.359375 29.527344 48.191406 29.527344 C 48.109375 29.527344 48.03125 29.527344 47.953125 29.53125 C 47.839844 29.53125 47.726562 29.53125 47.617188 29.53125 C 47.550781 29.53125 47.488281 29.53125 47.421875 29.53125 C 47.191406 29.488281 47.113281 29.414062 46.949219 29.25 C 46.890625 29.074219 46.890625 28.9375 46.890625 28.75 C 46.890625 28.699219 46.890625 28.699219 46.890625 28.644531 C 46.890625 28.527344 46.886719 28.414062 46.886719 28.296875 C 46.886719 28.257812 46.886719 28.214844 46.886719 28.175781 C 46.886719 27.964844 46.886719 27.753906 46.886719 27.542969 C 46.882812 27.324219 46.882812 27.109375 46.882812 26.890625 C 46.878906 26.722656 46.878906 26.554688 46.878906 26.386719 C 46.878906 26.308594 46.878906 26.226562 46.878906 26.148438 C 46.875 26.035156 46.875 25.921875 46.875 25.8125 C 46.875 25.746094 46.875 25.683594 46.875 25.617188 C 46.90625 25.417969 46.957031 25.339844 47.101562 25.199219 C 47.273438 25.078125 47.441406 25.085938 47.648438 25.085938 Z M 47.648438 25.085938 " data-index="8"></path>
<path style="fill-rule: nonzero; fill: rgb(0, 0, 0); fill-opacity: 1; opacity: 1; visibility: visible;" d="M 64.78125 54.851562 C 65.230469 55.117188 65.398438 55.515625 65.550781 56 C 65.609375 56.230469 65.609375 56.453125 65.609375 56.6875 C 65.609375 56.730469 65.609375 56.773438 65.609375 56.816406 C 65.613281 56.90625 65.613281 56.996094 65.613281 57.085938 C 65.613281 57.21875 65.613281 57.355469 65.617188 57.488281 C 65.621094 58.203125 65.609375 59.03125 65.078125 59.574219 C 64.78125 59.75 64.492188 59.792969 64.148438 59.75 C 63.925781 59.640625 63.804688 59.527344 63.699219 59.300781 C 63.574219 58.917969 63.582031 58.542969 63.582031 58.144531 C 63.582031 58.074219 63.582031 58 63.582031 57.925781 C 63.582031 57.773438 63.582031 57.621094 63.582031 57.464844 C 63.582031 57.269531 63.582031 57.074219 63.578125 56.878906 C 63.578125 56.730469 63.578125 56.578125 63.578125 56.425781 C 63.578125 56.355469 63.578125 56.28125 63.574219 56.210938 C 63.566406 55.304688 63.566406 55.304688 63.878906 54.960938 C 64.152344 54.726562 64.453125 54.757812 64.78125 54.851562 Z M 64.78125 54.851562 " data-index="9"></path>
<path style="fill-rule: nonzero; fill: rgb(0, 0, 0); fill-opacity: 1; opacity: 1; visibility: visible;" d="M 55.359375 54.878906 C 55.792969 55.253906 56.054688 55.722656 56.109375 56.304688 C 56.113281 56.414062 56.113281 56.519531 56.113281 56.628906 C 56.113281 56.6875 56.113281 56.6875 56.113281 56.75 C 56.113281 56.832031 56.113281 56.917969 56.113281 57 C 56.113281 57.125 56.113281 57.253906 56.113281 57.378906 C 56.113281 58.851562 56.113281 58.851562 55.699219 59.449219 C 55.402344 59.71875 55.191406 59.773438 54.796875 59.765625 C 54.59375 59.742188 54.492188 59.695312 54.351562 59.550781 C 54.148438 59.238281 54.09375 58.945312 54.09375 58.574219 C 54.089844 58.511719 54.089844 58.445312 54.089844 58.378906 C 54.089844 58.308594 54.089844 58.238281 54.089844 58.167969 C 54.089844 58.117188 54.089844 58.117188 54.089844 58.0625 C 54.089844 57.875 54.089844 57.683594 54.089844 57.496094 C 54.085938 57.300781 54.085938 57.109375 54.085938 56.914062 C 54.085938 56.765625 54.082031 56.613281 54.082031 56.464844 C 54.082031 56.394531 54.082031 56.324219 54.082031 56.25 C 54.074219 55.367188 54.074219 55.367188 54.367188 55.003906 C 54.667969 54.769531 55.011719 54.707031 55.359375 54.878906 Z M 55.359375 54.878906 " data-index="10"></path>
<path style="fill-rule: nonzero; fill: rgb(0, 0, 0); fill-opacity: 1; opacity: 1; visibility: visible;" d="M 45.78125 54.851562 C 46.222656 55.113281 46.417969 55.515625 46.550781 56 C 46.617188 56.402344 46.609375 56.808594 46.613281 57.21875 C 46.613281 57.335938 46.613281 57.457031 46.617188 57.574219 C 46.621094 58.191406 46.59375 58.984375 46.179688 59.484375 C 45.910156 59.722656 45.621094 59.773438 45.269531 59.765625 C 45.085938 59.742188 44.984375 59.675781 44.851562 59.550781 C 44.621094 59.246094 44.59375 58.9375 44.589844 58.566406 C 44.589844 58.5 44.589844 58.433594 44.589844 58.367188 C 44.589844 58.296875 44.589844 58.226562 44.589844 58.15625 C 44.585938 58.121094 44.585938 58.082031 44.585938 58.046875 C 44.585938 57.855469 44.585938 57.664062 44.585938 57.472656 C 44.585938 57.277344 44.582031 57.082031 44.582031 56.886719 C 44.578125 56.734375 44.578125 56.582031 44.578125 56.429688 C 44.578125 56.359375 44.578125 56.285156 44.578125 56.214844 C 44.566406 55.304688 44.566406 55.304688 44.878906 54.960938 C 45.152344 54.726562 45.453125 54.757812 45.78125 54.851562 Z M 45.78125 54.851562 " data-index="11"></path>
<path style="fill-rule: nonzero; fill: rgb(50, 42, 40); fill-opacity: 1; opacity: 1;" d="M 49.09375 32.238281 C 49.324219 32.359375 49.480469 32.515625 49.601562 32.75 C 49.628906 33.050781 49.566406 33.257812 49.398438 33.5 C 49.222656 33.675781 49.070312 33.714844 48.828125 33.730469 C 48.578125 33.722656 48.441406 33.660156 48.265625 33.480469 C 48.097656 33.273438 48.078125 33.070312 48.085938 32.8125 C 48.113281 32.601562 48.214844 32.46875 48.378906 32.335938 C 48.609375 32.191406 48.828125 32.132812 49.09375 32.238281 Z M 49.09375 32.238281 " data-index="12"></path>
<path style=" stroke:none;fill-rule:nonzero;fill:rgb(19.607843%,16.470589%,15.686275%);fill-opacity:1;" d="M 44.457031 30.605469 C 44.652344 30.734375 44.792969 30.886719 44.898438 31.101562 C 44.929688 31.398438 44.863281 31.605469 44.699219 31.851562 C 44.488281 32.050781 44.261719 32.074219 43.980469 32.070312 C 43.761719 32.035156 43.636719 31.917969 43.5 31.75 C 43.367188 31.539062 43.367188 31.292969 43.398438 31.050781 C 43.605469 30.613281 44 30.441406 44.457031 30.605469 Z M 44.457031 30.605469 " data-index="13"></path>
<path style="fill-rule: nonzero; fill: rgb(50, 42, 40); fill-opacity: 1; opacity: 1;" d="M 54.5 30.351562 C 54.742188 30.46875 54.882812 30.609375 55 30.851562 C 55.046875 31.132812 55.011719 31.359375 54.851562 31.601562 C 54.617188 31.808594 54.472656 31.867188 54.164062 31.863281 C 53.925781 31.835938 53.789062 31.695312 53.632812 31.523438 C 53.492188 31.316406 53.480469 31.148438 53.5 30.898438 C 53.726562 30.46875 54.027344 30.292969 54.5 30.351562 Z M 54.5 30.351562 " data-index="14"></path>
<path style="fill-rule: nonzero; fill: rgb(50, 42, 40); fill-opacity: 1; opacity: 1;" d="M 55.699219 27.800781 C 55.941406 27.914062 56.078125 28.058594 56.199219 28.300781 C 56.246094 28.566406 56.199219 28.773438 56.050781 29 C 55.796875 29.230469 55.628906 29.273438 55.292969 29.269531 C 55.066406 29.238281 54.941406 29.121094 54.800781 28.949219 C 54.648438 28.726562 54.652344 28.511719 54.699219 28.25 C 54.957031 27.828125 55.222656 27.753906 55.699219 27.800781 Z M 55.699219 27.800781 " data-index="15"></path>
<path style=" stroke:none;fill-rule:nonzero;fill:rgb(19.215687%,16.470589%,15.686275%);fill-opacity:1;" d="M 44.148438 21.5 C 44.332031 21.5625 44.464844 21.660156 44.597656 21.804688 C 44.703125 22.09375 44.699219 22.390625 44.570312 22.671875 C 44.375 22.878906 44.207031 22.984375 43.925781 23.023438 C 43.640625 22.984375 43.472656 22.878906 43.277344 22.671875 C 43.167969 22.425781 43.148438 22.214844 43.199219 21.949219 C 43.421875 21.558594 43.714844 21.445312 44.148438 21.5 Z M 44.148438 21.5 " data-index="16"></path>
<path style="fill-rule: nonzero; fill: rgb(49, 42, 40); fill-opacity: 1; opacity: 1; visibility: visible;" d="M 53.351562 22.550781 C 53.59375 22.664062 53.726562 22.8125 53.851562 23.050781 C 53.882812 23.320312 53.832031 23.511719 53.699219 23.75 C 53.449219 23.980469 53.277344 24.023438 52.941406 24.019531 C 52.714844 23.988281 52.589844 23.875 52.449219 23.699219 C 52.320312 23.492188 52.296875 23.238281 52.351562 23 C 52.617188 22.582031 52.867188 22.5 53.351562 22.550781 Z M 53.351562 22.550781 " data-index="17"></path>
<path style=" stroke:none;fill-rule:nonzero;fill:rgb(87.843138%,26.666668%,7.450981%);fill-opacity:1;" d="M 49.949219 28.148438 C 50.132812 28.148438 50.3125 28.148438 50.5 28.148438 C 50.5 28.332031 50.5 28.511719 50.5 28.699219 C 50.320312 28.699219 50.136719 28.699219 49.949219 28.699219 C 49.949219 28.519531 49.949219 28.335938 49.949219 28.148438 Z M 49.949219 28.148438 " data-index="18"></path>
<path style=" stroke:none;fill-rule:nonzero;fill:rgb(86.274511%,26.666668%,7.843138%);fill-opacity:1;" d="M 49.949219 27.050781 C 50.132812 27.050781 50.3125 27.050781 50.5 27.050781 C 50.5 27.230469 50.5 27.414062 50.5 27.601562 C 50.320312 27.601562 50.136719 27.601562 49.949219 27.601562 C 49.949219 27.417969 49.949219 27.238281 49.949219 27.050781 Z M 49.949219 27.050781 " data-index="19"></path>
<path style=" stroke:none;fill-rule:nonzero;fill:rgb(86.274511%,26.666668%,7.843138%);fill-opacity:1;" d="M 48.800781 27.050781 C 48.980469 27.050781 49.164062 27.050781 49.351562 27.050781 C 49.351562 27.230469 49.351562 27.414062 49.351562 27.601562 C 49.167969 27.601562 48.988281 27.601562 48.800781 27.601562 C 48.800781 27.417969 48.800781 27.238281 48.800781 27.050781 Z M 48.800781 27.050781 " data-index="20"></path>
<path style=" stroke:none;fill-rule:nonzero;fill:rgb(88.235295%,27.058825%,7.450981%);fill-opacity:1;" d="M 48.800781 25.898438 C 48.980469 25.898438 49.164062 25.898438 49.351562 25.898438 C 49.351562 26.082031 49.351562 26.261719 49.351562 26.449219 C 49.167969 26.449219 48.988281 26.449219 48.800781 26.449219 C 48.800781 26.269531 48.800781 26.085938 48.800781 25.898438 Z M 48.800781 25.898438 " data-index="21"></path>
<path style=" stroke:none;fill-rule:nonzero;fill:rgb(89.803922%,27.058825%,7.450981%);fill-opacity:1;" d="M 47.699219 28.148438 C 47.863281 28.148438 48.03125 28.148438 48.199219 28.148438 C 48.199219 28.332031 48.199219 28.511719 48.199219 28.699219 C 48.035156 28.699219 47.871094 28.699219 47.699219 28.699219 C 47.699219 28.519531 47.699219 28.335938 47.699219 28.148438 Z M 47.699219 28.148438 " data-index="22"></path>
<path style=" stroke:none;fill-rule:nonzero;fill:rgb(90.196079%,27.058825%,7.450981%);fill-opacity:1;" d="M 47.699219 25.898438 C 47.863281 25.898438 48.03125 25.898438 48.199219 25.898438 C 48.199219 26.082031 48.199219 26.261719 48.199219 26.449219 C 48.035156 26.449219 47.871094 26.449219 47.699219 26.449219 C 47.699219 26.269531 47.699219 26.085938 47.699219 25.898438 Z M 47.699219 25.898438 " data-index="23"></path>
</g>
</svg>