<?xml version="1.0" encoding="UTF-8"?>
<svg version="1.1" xmlns="http://www.w3.org/2000/svg" width="500" height="500">
<path d="M0 0 C2.5625 0.25 2.5625 0.25 5 1 C15.18217447 21.36434895 3.43173966 60.53388983 -1 82 C-1.495 83.485 -1.495 83.485 -2 85 C-1.36630493 84.9498877 -0.73260986 84.89977539 -0.07971191 84.84814453 C6.53901635 84.32535598 13.15807692 83.80693939 19.77734375 83.29101562 C22.24487892 83.09811807 24.71232836 82.90412053 27.1796875 82.70898438 C30.73415298 82.42806694 34.28891192 82.15115745 37.84375 81.875 C38.93989624 81.78750488 40.03604248 81.70000977 41.16540527 81.60986328 C46.79766207 81.17636115 52.35116539 80.90466102 58 81 C58.15855469 80.01644531 58.31710937 79.03289062 58.48046875 78.01953125 C61.1063495 62.20619484 64.89042064 46.7048239 69.125 31.25 C69.48718628 29.88246582 69.48718628 29.88246582 69.85668945 28.48730469 C70.09218506 27.65102539 70.32768066 26.81474609 70.5703125 25.953125 C70.77414551 25.21223633 70.97797852 24.47134766 71.18798828 23.70800781 C71.45595215 23.14436523 71.72391602 22.58072266 72 22 C72.99 21.67 73.98 21.34 75 21 C75.99 21.99 75.99 21.99 77 23 C76.0696534 29.09893881 74.10236906 34.74266302 72.10595703 40.56616211 C70.13559263 46.40499432 68.44439175 52.30848537 66.8125 58.25 C66.56274414 59.14807373 66.31298828 60.04614746 66.05566406 60.97143555 C64.35005121 67.26275311 63.07320181 73.57162176 62 80 C63.65 80.33 65.3 80.66 67 81 C66.67 82.32 66.34 83.64 66 85 C64.02 85 62.04 85 60 85 C59.814375 86.6396875 59.814375 86.6396875 59.625 88.3125 C59.21036292 91.67698376 58.64082877 94.98401626 58 98.3125 C56.33097442 107.46722984 55.89101832 116.45759748 55.8125 125.75 C55.79944824 126.64960449 55.78639648 127.54920898 55.77294922 128.47607422 C55.76615787 133.7083239 56.15159315 138.08375122 58 143 C58.721875 143.70125 59.44375 144.4025 60.1875 145.125 C60.785625 145.74375 61.38375 146.3625 62 147 C61.75 149.75 61.75 149.75 61 152 C58.1875 151.9375 58.1875 151.9375 55 151 C53.1875 147.625 53.1875 147.625 52 144 C51.67 143.01 51.34 142.02 51 141 C50.76612048 137.60894353 50.80965242 134.2108013 50.8125 130.8125 C50.81330566 129.82523926 50.81411133 128.83797852 50.81494141 127.82080078 C50.88459303 119.39568598 51.67002163 111.31691954 53 103 C53.16757812 101.85402344 53.33515625 100.70804687 53.5078125 99.52734375 C54.24704097 94.6988911 55.13532751 90.52343502 57 86 C49.67084049 86.51963265 42.34191231 87.04239856 35.01325989 87.56913757 C30.44398325 87.89730232 25.87437666 88.22058898 21.3046875 88.54296875 C18.89061184 88.71596232 16.47654885 88.88913267 14.0625 89.0625 C12.35936646 89.18117432 12.35936646 89.18117432 10.62182617 89.30224609 C9.03204956 89.41753662 9.03204956 89.41753662 7.41015625 89.53515625 C6.02002319 89.63389038 6.02002319 89.63389038 4.60180664 89.73461914 C2.01805764 89.99815814 -0.46373145 90.44749158 -3 91 C-3.67076489 93.76989964 -4.33676317 96.54079742 -5 99.3125 C-5.19078125 100.09818359 -5.3815625 100.88386719 -5.578125 101.69335938 C-5.75859375 102.45068359 -5.9390625 103.20800781 -6.125 103.98828125 C-6.37636719 105.03302612 -6.37636719 105.03302612 -6.6328125 106.09887695 C-7.09481884 108.16821738 -7.09481884 108.16821738 -7 111 C-6.34 110.34 -5.68 109.68 -5 109 C-2.375 109.375 -2.375 109.375 0 110 C0.88420184 113.571684 1.01205221 116.19707738 0.28515625 119.796875 C0.09775879 120.73885742 -0.08963867 121.68083984 -0.28271484 122.65136719 C-0.49879395 123.67391602 -0.71487305 124.69646484 -0.9375 125.75 C-1.16131348 126.8318457 -1.38512695 127.91369141 -1.61572266 129.02832031 C-14.07124055 188.10686083 -14.07124055 188.10686083 -24 203 C-27.125 203.1875 -27.125 203.1875 -30 203 C-36.41162677 192.78146984 -29.16458167 173.30074542 -26.75 162.60546875 C-26.16791168 160.07002635 -25.58455043 157.53487589 -25 155 C-24.69883157 153.68058962 -24.39805379 152.36109001 -24.09765625 151.04150391 C-21.23295316 138.46907293 -18.34123196 125.91254827 -14.91015625 113.48046875 C-13.05165524 106.37349707 -11.54626581 99.18026626 -10 92 C-23.95971601 91.56274671 -40.51544513 94.61255332 -53 101 C-54.76077554 102.60486628 -54.76077554 102.60486628 -56 104.375 C-56.66 105.24125 -57.32 106.1075 -58 107 C-61.3125 106.875 -61.3125 106.875 -64 106 C-64 103.8125 -64 103.8125 -63 101 C-49.31172754 89.82590003 -26.04377902 87.44919378 -9 86 C-5.95065045 74.79828127 -3.9714751 63.43234046 -2 52 C-1.67128906 50.11087891 -1.67128906 50.11087891 -1.3359375 48.18359375 C2.23312147 26.93302209 2.23312147 26.93302209 -1 6 C-1.75 3.6875 -1.75 3.6875 -2 2 C-1.34 1.34 -0.68 0.68 0 0 Z M-9 113 C-16.1875176 141.02727678 -16.1875176 141.02727678 -22.67160034 169.22341919 C-22.97011011 170.59883054 -23.27236258 171.97343578 -23.5786438 173.34713745 C-25.35215842 181.33799711 -26.43815468 188.80735419 -26 197 C-22.03498383 191.05247574 -20.10987688 185.28956997 -18.44140625 178.421875 C-18.21098129 177.49642883 -17.98055634 176.57098267 -17.7431488 175.61749268 C-17.25669088 173.65824856 -16.77361231 171.69816269 -16.29370117 169.73730469 C-15.57464685 166.79962564 -14.84596538 163.86448126 -14.11523438 160.9296875 C-12.71695988 155.29273892 -11.3491692 149.64889124 -10 144 C-9.68709015 142.69421997 -9.68709015 142.69421997 -9.36785889 141.36206055 C-8.78616456 138.91542109 -8.21675049 136.46630349 -7.65234375 134.015625 C-7.48295792 133.30347839 -7.31357208 132.59133179 -7.13905334 131.85760498 C-5.60179551 125.04673772 -5.4492111 119.53639657 -8 113 C-8.33 113 -8.66 113 -9 113 Z " fill="#BE6820" transform="translate(243,118)"/>
<path d="M0 0 C0.33 0 0.66 0 1 0 C1 3.33333333 1 6.66666667 1 10 C1.33 9.01 1.66 8.02 2 7 C2.66 7 3.32 7 4 7 C4 8.98 4 10.96 4 13 C4.66 12.34 5.32 11.68 6 11 C8.625 11.375 8.625 11.375 11 12 C11.88420184 15.571684 12.01205221 18.19707738 11.28515625 21.796875 C11.09775879 22.73885742 10.91036133 23.68083984 10.71728516 24.65136719 C10.50120605 25.67391602 10.28512695 26.69646484 10.0625 27.75 C9.83868652 28.8318457 9.61487305 29.91369141 9.38427734 31.02832031 C-3.07124055 90.10686083 -3.07124055 90.10686083 -13 105 C-16.125 105.1875 -16.125 105.1875 -19 105 C-25.41162677 94.78146984 -18.16458167 75.30074542 -15.75 64.60546875 C-15.16791168 62.07002635 -14.58455043 59.53487589 -14 57 C-13.69883157 55.68058962 -13.39805379 54.36109001 -13.09765625 53.04150391 C-10.20363337 40.34055258 -7.30084501 27.64380321 -3.84375 15.08203125 C-2.47360002 10.07717784 -1.23857746 5.03875829 0 0 Z M2 15 C-5.1875176 43.02727678 -5.1875176 43.02727678 -11.67160034 71.22341919 C-11.97011011 72.59883054 -12.27236258 73.97343578 -12.5786438 75.34713745 C-14.35215842 83.33799711 -15.43815468 90.80735419 -15 99 C-11.03498383 93.05247574 -9.10987688 87.28956997 -7.44140625 80.421875 C-7.21098129 79.49642883 -6.98055634 78.57098267 -6.7431488 77.61749268 C-6.25669088 75.65824856 -5.77361231 73.69816269 -5.29370117 71.73730469 C-4.57464685 68.79962564 -3.84596538 65.86448126 -3.11523438 62.9296875 C-1.71695988 57.29273892 -0.3491692 51.64889124 1 46 C1.31290985 44.69421997 1.31290985 44.69421997 1.63214111 43.36206055 C2.21383544 40.91542109 2.78324951 38.46630349 3.34765625 36.015625 C3.51704208 35.30347839 3.68642792 34.59133179 3.86094666 33.85760498 C5.39820449 27.04673772 5.5507889 21.53639657 3 15 C2.67 15 2.34 15 2 15 Z " fill="#C35C1E" transform="translate(232,216)"/>
<path d="M0 0 C0.99 0.66 1.98 1.32 3 2 C1.95750693 7.40200956 0.54387342 12.48469028 -1.25 17.6875 C-3.4662395 24.14565547 -5.37924449 30.66636688 -7.1875 37.25 C-7.43725586 38.14807373 -7.68701172 39.04614746 -7.94433594 39.97143555 C-9.64994879 46.26275311 -10.92679819 52.57162176 -12 59 C-10.35 59.33 -8.7 59.66 -7 60 C-7.33 61.32 -7.66 62.64 -8 64 C-9.98 64 -11.96 64 -14 64 C-14.185625 65.6396875 -14.185625 65.6396875 -14.375 67.3125 C-14.78963708 70.67698376 -15.35917123 73.98401626 -16 77.3125 C-17.66902558 86.46722984 -18.10898168 95.45759748 -18.1875 104.75 C-18.20055176 105.64960449 -18.21360352 106.54920898 -18.22705078 107.47607422 C-18.23384213 112.7083239 -17.84840685 117.08375122 -16 122 C-15.278125 122.70125 -14.55625 123.4025 -13.8125 124.125 C-13.214375 124.74375 -12.61625 125.3625 -12 126 C-12.25 128.75 -12.25 128.75 -13 131 C-15.8125 130.9375 -15.8125 130.9375 -19 130 C-20.8125 126.625 -20.8125 126.625 -22 123 C-22.33 122.01 -22.66 121.02 -23 120 C-23.23387952 116.60894353 -23.19034758 113.2108013 -23.1875 109.8125 C-23.18669434 108.82523926 -23.18588867 107.83797852 -23.18505859 106.82080078 C-23.11540697 98.39568598 -22.32997837 90.31691954 -21 82 C-20.74863281 80.28103516 -20.74863281 80.28103516 -20.4921875 78.52734375 C-19.75295903 73.6988911 -18.86467249 69.52343502 -17 65 C-18.12575439 65.0714624 -19.25150879 65.1429248 -20.41137695 65.21655273 C-32.68190942 65.95279955 -44.89775173 66.12218631 -57.1875 66.0625 C-59.02799355 66.05746467 -60.86848846 66.05290543 -62.70898438 66.04882812 C-67.13935782 66.03800712 -71.56966293 66.02085997 -76 66 C-71.93820107 63.7779306 -68.05200947 63.39696706 -63.5 63 C-62.6450293 62.92023926 -61.79005859 62.84047852 -60.90917969 62.75830078 C-53.0298304 62.04540727 -45.14017549 61.45364042 -37.25 60.875 C-36.06083984 60.78734375 -34.87167969 60.6996875 -33.64648438 60.609375 C-27.74769483 60.19448566 -21.91325135 59.89804739 -16 60 C-15.84144531 59.01644531 -15.68289063 58.03289062 -15.51953125 57.01953125 C-12.89218044 41.19734201 -9.1184957 25.69493016 -4.8125 10.25 C-4.56266357 9.33831055 -4.31282715 8.42662109 -4.05541992 7.48730469 C-3.81670166 6.65102539 -3.5779834 5.81474609 -3.33203125 4.953125 C-3.12296143 4.21223633 -2.9138916 3.47134766 -2.69848633 2.70800781 C-2 1 -2 1 0 0 Z " fill="#A09931" transform="translate(317,139)"/>
<path d="M0 0 C2.475 0.495 2.475 0.495 5 1 C5.88420184 4.571684 6.01205221 7.19707738 5.28515625 10.796875 C5.00406006 12.20984863 5.00406006 12.20984863 4.71728516 13.65136719 C4.50120605 14.67391602 4.28512695 15.69646484 4.0625 16.75 C3.83868652 17.8318457 3.61487305 18.91369141 3.38427734 20.02832031 C-10.69206894 86.79471263 -10.69206894 86.79471263 -20 93 C-20.33 92.34 -20.66 91.68 -21 91 C-21.66 91 -22.32 91 -23 91 C-23 87.04 -23 83.08 -23 79 C-22.67 79 -22.34 79 -22 79 C-22 81.97 -22 84.94 -22 88 C-21.34 88 -20.68 88 -20 88 C-19.896875 87.360625 -19.79375 86.72125 -19.6875 86.0625 C-19.12780315 83.56930492 -18.45378983 81.30198128 -17.625 78.89453125 C-12.92186274 64.91181278 -9.53662308 50.49514452 -6.17269897 36.14202881 C-5.8113236 34.60499041 -5.4460283 33.06886766 -5.0765686 31.53375244 C-3.20297446 23.72058872 -1.5358215 16.27712371 -1.97021484 8.17529297 C-2.0112173 5.18076959 -1.17920036 2.72690083 0 0 Z " fill="#B4501E" transform="translate(238,227)"/>
<path d="M0 0 C2.5625 0.25 2.5625 0.25 5 1 C13.17073432 17.34146864 5.43723162 48.97919193 2 66 C1.37636985 67.6832432 0.72265376 69.35683422 0 71 C-0.66 70.67 -1.32 70.34 -2 70 C-2.66 70.99 -3.32 71.98 -4 73 C-4.23613204 65.71037527 -3.32247969 58.98230671 -2.0625 51.8125 C-0.56232414 42.85645013 0.72851346 34.08889716 1 25 C1.03996094 23.92492187 1.07992187 22.84984375 1.12109375 21.7421875 C1.24024058 16.037157 0.90494902 11.37867959 -1 6 C-1.75 3.6875 -1.75 3.6875 -2 2 C-1.34 1.34 -0.68 0.68 0 0 Z " fill="#AE6F1F" transform="translate(243,118)"/>
<path d="M0 0 C1.65 0.33 3.3 0.66 5 1 C6.02774225 4.94005344 5.88574434 7.80616653 5.07421875 11.78125 C4.85443359 12.87050781 4.63464844 13.95976562 4.40820312 15.08203125 C4.17037109 16.20996094 3.93253906 17.33789062 3.6875 18.5 C3.46126953 19.62792969 3.23503906 20.75585938 3.00195312 21.91796875 C1.99544015 26.82000599 0.97840329 31.38706074 -1 36 C-1.33 35.34 -1.66 34.68 -2 34 C-2.66 34 -3.32 34 -4 34 C-3.85848172 31.9163691 -3.71162064 29.83310062 -3.5625 27.75 C-3.48128906 26.58984375 -3.40007812 25.4296875 -3.31640625 24.234375 C-3 21 -3 21 -2.4609375 18.9140625 C-1.86343345 16.43290159 -1.9804506 14.17209876 -2.0625 11.625 C-2.11412912 7.33978307 -1.72491736 3.9888714 0 0 Z " fill="#D8702A" transform="translate(238,227)"/>
<path d="M0 0 C0 0.66 0 1.32 0 2 C2.97 2 5.94 2 9 2 C9 2.33 9 2.66 9 3 C8.22398437 3.09796875 7.44796875 3.1959375 6.6484375 3.296875 C-11.43728712 5.47894142 -11.43728712 5.47894142 -26.375 14.6875 C-26.91125 15.450625 -27.4475 16.21375 -28 17 C-29.98 16.67 -31.96 16.34 -34 16 C-34 13.8125 -34 13.8125 -33 11 C-24.60486429 4.146828 -10.74859786 0 0 0 Z " fill="#921414" transform="translate(213,208)"/>
<path d="M0 0 C0.33 0 0.66 0 1 0 C0.24783024 19.27929846 0.24783024 19.27929846 -1.53125 26.72265625 C-2.27424544 30.33237578 -2.4447902 33.97822964 -2.65625 37.65234375 C-3 40 -3 40 -5 43 C-3.515 42.505 -3.515 42.505 -2 42 C-1.67 43.32 -1.34 44.64 -1 46 C-2.98 46 -4.96 46 -7 46 C-9.67289025 42.12328894 -9.01875653 38.20732397 -8.625 33.75 C-8.56828125 33.00492187 -8.5115625 32.25984375 -8.453125 31.4921875 C-8.31223742 29.66064892 -8.15748116 27.83018648 -8 26 C-7.34 26 -6.68 26 -6 26 C-4.42150508 19.07890687 -3.03001968 12.12948009 -1.68359375 5.16015625 C-1 2 -1 2 0 0 Z " fill="#CC3715" transform="translate(220,275)"/>
<path d="M0 0 C0.66 0.66 1.32 1.32 2 2 C-3.02765992 7.02765992 -21.7370612 5.18024899 -28.60546875 5.1953125 C-32.13306995 5.18936149 -35.66007771 5.15926251 -39.1875 5.125 C-41.02798981 5.11492936 -42.86848508 5.10581088 -44.70898438 5.09765625 C-49.1394625 5.07601373 -53.56966735 5.0417199 -58 5 C-55.23470625 3.47160734 -53.00759405 2.70168739 -49.8671875 2.40234375 C-48.67174316 2.28415283 -48.67174316 2.28415283 -47.45214844 2.16357422 C-46.60168945 2.08896973 -45.75123047 2.01436523 -44.875 1.9375 C-43.98844727 1.85516113 -43.10189453 1.77282227 -42.18847656 1.68798828 C-12.74226885 -0.95892074 -12.74226885 -0.95892074 0 0 Z " fill="#D9A231" transform="translate(299,200)"/>
<path d="M0 0 C0.33 0 0.66 0 1 0 C1 1.65 1 3.3 1 5 C2.98 5 4.96 5 7 5 C6.67 6.32 6.34 7.64 6 9 C4.02 9 2.04 9 0 9 C-0.12375 10.093125 -0.2475 11.18625 -0.375 12.3125 C-0.78963708 15.67698376 -1.35917123 18.98401626 -2 22.3125 C-3.03970486 27.85241991 -3.58707831 33.38209172 -4 39 C-4.66 39 -5.32 39 -6 39 C-6.33 39.99 -6.66 40.98 -7 42 C-7.2693876 31.04490431 -7.4053641 20.25450298 -3 10 C-5.64 10 -8.28 10 -11 10 C-11 9.67 -11 9.34 -11 9 C-8.36 8.67 -5.72 8.34 -3 8 C-5.31 7.34 -7.62 6.68 -10 6 C-10 5.67 -10 5.34 -10 5 C-7.36 5 -4.72 5 -2 5 C-1.34 3.35 -0.68 1.7 0 0 Z " fill="#A19F38" transform="translate(303,194)"/>
<path d="M0 0 C2.48039599 6.6143893 -0.43257393 14.05855034 -2.8125 20.3125 C-3.06064453 21.01439453 -3.30878906 21.71628906 -3.56445312 22.43945312 C-5.0409986 26.38066484 -6.27976954 28.89375238 -10 31 C-10.33 30.34 -10.66 29.68 -11 29 C-11.66 29 -12.32 29 -13 29 C-13 25.04 -13 21.08 -13 17 C-12.67 17 -12.34 17 -12 17 C-12 19.97 -12 22.94 -12 26 C-11.34 26 -10.68 26 -10 26 C-9.896875 25.360625 -9.79375 24.72125 -9.6875 24.0625 C-8.95255943 20.78867382 -7.91847346 17.72122928 -6.8203125 14.5546875 C-5.62045925 10.81800165 -4.73524904 7.00821018 -3.84375 3.1875 C-3.5653125 2.465625 -3.286875 1.74375 -3 1 C-2.01 0.67 -1.02 0.34 0 0 Z " fill="#C34921" transform="translate(228,289)"/>
<path d="M0 0 C0.66 0 1.32 0 2 0 C0.36817921 9.74798208 -1.81637316 19.36448155 -4 29 C-4.33 29 -4.66 29 -5 29 C-5 25.04 -5 21.08 -5 17 C-5.26554688 18.22976563 -5.53109375 19.45953125 -5.8046875 20.7265625 C-6.16128691 22.35941245 -6.51806733 23.99222287 -6.875 25.625 C-7.04902344 26.43324219 -7.22304687 27.24148438 -7.40234375 28.07421875 C-8.37070225 32.48562968 -9.4699227 36.74059564 -11 41 C-12.1271377 37.60472052 -11.85746487 35.25426028 -11.109375 31.78125 C-10.89563232 30.77126953 -10.68188965 29.76128906 -10.46166992 28.72070312 C-10.22681885 27.65787109 -9.99196777 26.59503906 -9.75 25.5 C-9.51837158 24.42169922 -9.28674316 23.34339844 -9.0480957 22.23242188 C-7.50668313 15.11903657 -5.8958239 8.0284203 -4 1 C-3.67 1 -3.34 1 -3 1 C-3 4.96 -3 8.92 -3 13 C-1.41744803 8.67435795 -0.54855348 4.571279 0 0 Z " fill="#B44822" transform="translate(225,260)"/>
<path d="M0 0 C1.32 0.33 2.64 0.66 4 1 C4.02725341 2.7290774 4.04650987 4.45828176 4.0625 6.1875 C4.07410156 7.15042969 4.08570313 8.11335937 4.09765625 9.10546875 C4.00486622 11.85576513 3.62111685 14.32479591 3 17 C2.01 17 1.02 17 0 17 C0.061875 18.010625 0.12375 19.02125 0.1875 20.0625 C-0.02642827 24.55499372 -1.04613532 27.01085961 -3 31 C-3.33 31 -3.66 31 -4 31 C-3.65179767 20.30178371 -2.90857436 10.35379299 0 0 Z " fill="#C95520" transform="translate(225,243)"/>
<path d="M0 0 C2.625 0.375 2.625 0.375 5 1 C5.05384521 3.29141286 5.09272087 5.58318188 5.125 7.875 C5.14820313 9.15117188 5.17140625 10.42734375 5.1953125 11.7421875 C5 15 5 15 3 17 C2.35163958 15.25093469 1.70641216 13.50070781 1.0625 11.75 C0.70285156 10.77546875 0.34320313 9.8009375 -0.02734375 8.796875 C-1.73843416 3.87663108 -1.73843416 3.87663108 -2 2 C-1.34 1.34 -0.68 0.68 0 0 Z " fill="#C28829" transform="translate(243,118)"/>
<path d="M0 0 C0.33 0 0.66 0 1 0 C2.40027356 22.80127986 2.40027356 22.80127986 1 32 C0.67 32 0.34 32 0 32 C-0.33 28.04 -0.66 24.08 -1 20 C-1.33 22.31 -1.66 24.62 -2 27 C-2.33 27 -2.66 27 -3 27 C-4.32286246 22.03926578 -4.08893197 17.08888488 -4 12 C-3.01 12 -2.02 12 -1 12 C-0.67 8.04 -0.34 4.08 0 0 Z " fill="#A6732B" transform="translate(248,121)"/>
<path d="M0 0 C0.72832031 -0.00773438 1.45664062 -0.01546875 2.20703125 -0.0234375 C7.62157931 -0.00342069 7.62157931 -0.00342069 9.875 2.25 C7.24244272 4.88255728 0.72302686 4.25260618 -2.76953125 4.3125 C-6.22192599 4.3125 -9.67289994 4.2936361 -13.125 4.25 C-10.58449004 -0.83101992 -4.99256757 -0.05358749 0 0 Z " fill="#C8B52B" transform="translate(291.125,199.75)"/>
<path d="M0 0 C0.33 0 0.66 0 1 0 C1 1.65 1 3.3 1 5 C2.98 5 4.96 5 7 5 C6.67 6.32 6.34 7.64 6 9 C4.02 9 2.04 9 0 9 C-0.33 10.32 -0.66 11.64 -1 13 C-1.33 12.01 -1.66 11.02 -2 10 C-4.97 10 -7.94 10 -11 10 C-11 9.67 -11 9.34 -11 9 C-8.36 8.67 -5.72 8.34 -3 8 C-5.31 7.34 -7.62 6.68 -10 6 C-10 5.67 -10 5.34 -10 5 C-7.36 5 -4.72 5 -2 5 C-1.34 3.35 -0.68 1.7 0 0 Z " fill="#9C9B27" transform="translate(303,194)"/>
<path d="M0 0 C0.99 0.66 1.98 1.32 3 2 C1.97137215 7.44567686 0.75385216 12.11817117 -2 17 C-2.99 17 -3.98 17 -5 17 C-5 16.34 -5 15.68 -5 15 C-4.34 15 -3.68 15 -3 15 C-3.20625 13.989375 -3.4125 12.97875 -3.625 11.9375 C-4.02986108 7.68645871 -3.50818211 4.96890029 -2 1 C-1.34 0.67 -0.68 0.34 0 0 Z " fill="#CED13A" transform="translate(317,139)"/>
<path d="M0 0 C0 0.66 0 1.32 0 2 C2.97 2 5.94 2 9 2 C9 2.33 9 2.66 9 3 C2.78419247 4.00349244 -3.43655265 4.99036804 -9.6875 5.75 C-10.86892578 5.89695313 -10.86892578 5.89695313 -12.07421875 6.046875 C-14 6 -14 6 -16 4 C-10.62375881 1.52692905 -6.00374228 0 0 0 Z " fill="#B3361F" transform="translate(213,208)"/>
<path d="M0 0 C0.66 0.33 1.32 0.66 2 1 C2 1.66 2 2.32 2 3 C1.34 3 0.68 3 0 3 C0 3.66 0 4.32 0 5 C0.99 5 1.98 5 3 5 C3.33 4.34 3.66 3.68 4 3 C3.19924675 6.26520744 2.32533815 9.50746067 1.4375 12.75 C1.16808594 13.73484375 0.89867187 14.7196875 0.62109375 15.734375 C0.41613281 16.48203125 0.21117187 17.2296875 0 18 C-0.66 18 -1.32 18 -2 18 C-2.33 18.66 -2.66 19.32 -3 20 C-3.41640288 12.7515055 -2.44166784 6.83085645 0 0 Z " fill="#C0C33C" transform="translate(312,151)"/>
<path d="M0 0 C0 0.33 0 0.66 0 1 C-10.03442033 1.87801178 -19.93605753 2.1176305 -30 2 C-30 1.34 -30 0.68 -30 0 C-20.25302633 -2.2617287 -9.85816496 -0.99469773 0 0 Z " fill="#B77723" transform="translate(272,205)"/>
<path d="M0 0 C2.02185443 1.66442897 2.92078843 2.52984103 3.36328125 5.15625 C3.34652344 5.9296875 3.32976562 6.703125 3.3125 7.5 C3.30863281 8.2734375 3.30476562 9.046875 3.30078125 9.84375 C3 12 3 12 1 15 C0.67 14.67 0.34 14.34 0 14 C-0.66 14.99 -1.32 15.98 -2 17 C-2.11116338 11.55299453 -2.00581962 6.36437132 -1 1 C-0.67 0.67 -0.34 0.34 0 0 Z " fill="#DA8228" transform="translate(241,174)"/>
<path d="M0 0 C1.65 0.33 3.3 0.66 5 1 C6.05404945 4.98196457 5.84098656 7.98195309 5 12 C4.34 12 3.68 12 3 12 C3 8.7 3 5.4 3 2 C2.34 2 1.68 2 1 2 C1 5.3 1 8.6 1 12 C0.34 12 -0.32 12 -1 12 C-2.11658501 7.31034294 -1.80619523 4.46236469 0 0 Z " fill="#C56A23" transform="translate(238,227)"/>
<path d="M0 0 C0.33 1.32 0.66 2.64 1 4 C1.66 4 2.32 4 3 4 C4.59789351 8.95346987 3.28306814 13.13282415 2 18 C1.34 18 0.68 18 0 18 C-1.67407948 12.14072182 -1.52003714 5.89014391 0 0 Z " fill="#C55D21" transform="translate(233,257)"/>
<path d="M0 0 C0.33 0 0.66 0 1 0 C1.5762243 9.60373836 -0.84605278 18.97696839 -4 28 C-5.20467209 24.47020092 -4.79130044 21.96986544 -4.00390625 18.359375 C-3.77509766 17.28945313 -3.54628906 16.21953125 -3.31054688 15.1171875 C-3.06369141 14.00601562 -2.81683594 12.89484375 -2.5625 11.75 C-2.31951172 10.62335938 -2.07652344 9.49671875 -1.82617188 8.3359375 C-1.22531055 5.55548119 -0.61631561 2.77706428 0 0 Z " fill="#A2351E" transform="translate(218,273)"/>
<path d="M0 0 C0.66 0 1.32 0 2 0 C2 4.95 2 9.9 2 15 C1.34 15 0.68 15 0 15 C-0.33 15.99 -0.66 16.98 -1 18 C-1.02698422 15.56242587 -1.04683099 13.12515085 -1.0625 10.6875 C-1.07087891 9.99720703 -1.07925781 9.30691406 -1.08789062 8.59570312 C-1.10307906 5.4516975 -1.00193327 3.00579981 0 0 Z " fill="#ACA843" transform="translate(297,218)"/>
<path d="M0 0 C2.5625 0.1875 2.5625 0.1875 4.5625 2.1875 C4.1875 4.8125 4.1875 4.8125 3.5625 7.1875 C0.5925 6.6925 0.5925 6.6925 -2.4375 6.1875 C-2.81968767 4.53135343 -3.15145102 2.86292976 -3.4375 1.1875 C-2.4375 0.1875 -2.4375 0.1875 0 0 Z " fill="#CEC528" transform="translate(300.4375,262.8125)"/>
<path d="M0 0 C0.33 0 0.66 0 1 0 C1 5.61 1 11.22 1 17 C0.01 17 -0.98 17 -2 17 C-2.11116338 11.55299453 -2.00581962 6.36437132 -1 1 C-0.67 0.67 -0.34 0.34 0 0 Z " fill="#F09923" transform="translate(247,140)"/>
<path d="M0 0 C2.03719911 6.11159732 -0.39993739 11.46073619 -3 17 C-3.33 17 -3.66 17 -4 17 C-3.91320858 14.53991222 -3.80639045 12.08356483 -3.6875 9.625 C-3.66494141 8.92632812 -3.64238281 8.22765625 -3.61914062 7.5078125 C-3.51171875 5.4765625 -3.51171875 5.4765625 -3 2 C-2.01 1.34 -1.02 0.68 0 0 Z " fill="#F05213" transform="translate(225,257)"/>
<path d="M0 0 C0.66 0 1.32 0 2 0 C2.33 4.62 2.66 9.24 3 14 C1.68 14.33 0.36 14.66 -1 15 C-1.33 13.35 -1.66 11.7 -2 10 C-1.34 10 -0.68 10 0 10 C-0.185625 8.906875 -0.37125 7.81375 -0.5625 6.6875 C-1 3 -1 3 0 0 Z " fill="#BE6210" transform="translate(239,229)"/>
<path d="M0 0 C0.99 0 1.98 0 3 0 C3 2.97 3 5.94 3 9 C2.34 9 1.68 9 1 9 C0.34 11.97 -0.32 14.94 -1 18 C-1.33 18 -1.66 18 -2 18 C-1.855625 16.88625 -1.71125 15.7725 -1.5625 14.625 C-0.95203629 9.75873212 -0.47014775 4.88153414 0 0 Z " fill="#ED6F19" transform="translate(233,214)"/>
<path d="M0 0 C0.33 1.32 0.66 2.64 1 4 C3.64 4.33 6.28 4.66 9 5 C8.01 5.66 7.02 6.32 6 7 C6 7.66 6 8.32 6 9 C6.99 9.33 7.98 9.66 9 10 C7.02 10.33 5.04 10.66 3 11 C2.67 9.68 2.34 8.36 2 7 C1.01 7.33 0.02 7.66 -1 8 C-0.67 5.36 -0.34 2.72 0 0 Z " fill="#B35C15" transform="translate(236,198)"/>
<path d="M0 0 C0.33 0 0.66 0 1 0 C0.67 5.28 0.34 10.56 0 16 C-0.66 16 -1.32 16 -2 16 C-2.33 16.66 -2.66 17.32 -3 18 C-3.36517527 11.42684522 -2.13619737 6.20514474 0 0 Z " fill="#EE4512" transform="translate(220,275)"/>
<path d="M0 0 C0.33 0 0.66 0 1 0 C1.05422947 1.4370809 1.09289723 2.87475462 1.125 4.3125 C1.14820313 5.11300781 1.17140625 5.91351563 1.1953125 6.73828125 C1 9 1 9 -1 12 C-2.32 11.34 -3.64 10.68 -5 10 C-4.34 7.69 -3.68 5.38 -3 3 C-2.01 3.33 -1.02 3.66 0 4 C0 2.68 0 1.36 0 0 Z " fill="#C46721" transform="translate(240,240)"/>
<path d="M0 0 C0.33 0 0.66 0 1 0 C1.309375 1.11375 1.61875 2.2275 1.9375 3.375 C2.82326483 6.7945155 2.82326483 6.7945155 4 9 C2.68 9.33 1.36 9.66 0 10 C0 10.99 0 11.98 0 13 C-0.66 12.67 -1.32 12.34 -2 12 C-2.99510142 8.0195943 -3.38761864 5.82809436 -1.625 2.0625 C-1.08875 1.381875 -0.5525 0.70125 0 0 Z " fill="#B4A925" transform="translate(298,254)"/>
<path d="M0 0 C0.33 1.32 0.66 2.64 1 4 C-2.96 4 -6.92 4 -11 4 C-11 3.01 -11 2.02 -11 1 C-7.26513121 0.4254048 -3.78706732 0 0 0 Z " fill="#BB5525" transform="translate(224,206)"/>
<path d="M0 0 C0.33 0 0.66 0 1 0 C1.33 5.61 1.66 11.22 2 17 C4.475 17.99 4.475 17.99 7 19 C7 19.33 7 19.66 7 20 C5.02 20 3.04 20 1 20 C-1.67289025 16.12328894 -1.01875653 12.20732397 -0.625 7.75 C-0.56828125 7.00492187 -0.5115625 6.25984375 -0.453125 5.4921875 C-0.31223742 3.66064892 -0.15748116 1.83018648 0 0 Z " fill="#982918" transform="translate(212,301)"/>
<path d="M0 0 C0.66 0 1.32 0 2 0 C2.25 6.625 2.25 6.625 0 10 C-0.99 10 -1.98 10 -3 10 C-2.69201674 8.51988629 -2.378482 7.04092675 -2.0625 5.5625 C-1.88847656 4.73878906 -1.71445313 3.91507812 -1.53515625 3.06640625 C-1 1 -1 1 0 0 Z " fill="#D34D21" transform="translate(223,302)"/>
<path d="M0 0 C0.66 0 1.32 0 2 0 C2 1.98 2 3.96 2 6 C2.66 5.67 3.32 5.34 4 5 C3.25 9.75 3.25 9.75 1 12 C0.34 12 -0.32 12 -1 12 C-1.02712066 10.56260487 -1.04645067 9.12506137 -1.0625 7.6875 C-1.07410156 6.88699219 -1.08570313 6.08648437 -1.09765625 5.26171875 C-1 3 -1 3 0 0 Z " fill="#B15923" transform="translate(234,223)"/>
<path d="M0 0 C0.33 1.32 0.66 2.64 1 4 C1.66 4 2.32 4 3 4 C3.28571429 11.42857143 3.28571429 11.42857143 1 15 C0 14 0 14 -0.09765625 10.83984375 C-0.08025391 8.90818359 -0.08025391 8.90818359 -0.0625 6.9375 C-0.05347656 5.64714844 -0.04445312 4.35679687 -0.03515625 3.02734375 C-0.02355469 2.02832031 -0.01195312 1.02929688 0 0 Z " fill="#F09529" transform="translate(243,161)"/>
<path d="M0 0 C0.66 0.99 1.32 1.98 2 3 C-1.3 3.33 -4.6 3.66 -8 4 C-8 3.01 -8 2.02 -8 1 C-3.375 -1.125 -3.375 -1.125 0 0 Z " fill="#9F2016" transform="translate(199,212)"/>
<path d="M0 0 C5.61 0 11.22 0 17 0 C16.01 0.66 15.02 1.32 14 2 C14.66 2.66 15.32 3.32 16 4 C14.02 4 12.04 4 10 4 C10 3.01 10 2.02 10 1 C6.7 1 3.4 1 0 1 C0 0.67 0 0.34 0 0 Z " fill="#AD9333" transform="translate(265,201)"/>
<path d="M0 0 C0.33 0 0.66 0 1 0 C1.2358396 5.77807024 0.86783046 10.51324804 -1 16 C-1.66 16 -2.32 16 -3 16 C-2.68806536 14.27073126 -2.37542638 12.54158956 -2.0625 10.8125 C-1.88847656 9.84957031 -1.71445313 8.88664063 -1.53515625 7.89453125 C-1.0476265 5.25760028 -0.53328895 2.6280095 0 0 Z " fill="#A54320" transform="translate(225,243)"/>
<path d="M0 0 C0.33 0 0.66 0 1 0 C3.52653315 6.16645379 4.31281522 10.43592388 3 17 C2.67 17 2.34 17 2 17 C2 14.36 2 11.72 2 9 C1.01 8.67 0.02 8.34 -1 8 C-0.67 5.36 -0.34 2.72 0 0 Z " fill="#B14A19" transform="translate(227,235)"/>
<path d="M0 0 C1.32 0.33 2.64 0.66 4 1 C4.33 3.31 4.66 5.62 5 8 C4.01 8.33 3.02 8.66 2 9 C0 3.375 0 3.375 0 0 Z " fill="#F0741A" transform="translate(234,204)"/>
<path d="M0 0 C0.61875 0.33 1.2375 0.66 1.875 1 C3.91018344 2.14193235 3.91018344 2.14193235 6 2 C5.34 5.63 4.68 9.26 4 13 C3.67 13 3.34 13 3 13 C2.8046875 10.94921875 2.609375 8.8984375 2.4140625 6.84765625 C2.27742187 6.23792969 2.14078125 5.62820312 2 5 C1.34 4.67 0.68 4.34 0 4 C0 2.68 0 1.36 0 0 Z " fill="#AC581E" transform="translate(233,210)"/>
<path d="M0 0 C0.66 0.66 1.32 1.32 2 2 C0.41105928 3.58894072 -1.24801424 3.16998411 -3.4375 3.1875 C-4.64212891 3.20876953 -4.64212891 3.20876953 -5.87109375 3.23046875 C-8 3 -8 3 -10 1 C-6.61401171 -0.04184255 -3.53318313 -0.23042499 0 0 Z " fill="#EDEA41" transform="translate(299,200)"/>
<path d="M0 0 C2.8086289 2.8086289 2.72711179 5.11134294 3 9 C2.01 10.485 2.01 10.485 1 12 C1 10.35 1 8.7 1 7 C0.01 7.33 -0.98 7.66 -2 8 C-1.34 5.36 -0.68 2.72 0 0 Z " fill="#A5411A" transform="translate(224,295)"/>
<path d="M0 0 C0.33 0 0.66 0 1 0 C1 1.65 1 3.3 1 5 C1.99 5.33 2.98 5.66 4 6 C3.67 7.98 3.34 9.96 3 12 C2.34 11.67 1.68 11.34 1 11 C1 10.01 1 9.02 1 8 C0.34 8 -0.32 8 -1 8 C-0.67 5.36 -0.34 2.72 0 0 Z " fill="#A0451C" transform="translate(227,282)"/>
<path d="M0 0 C0.66 0.33 1.32 0.66 2 1 C2 1.66 2 2.32 2 3 C1.34 3 0.68 3 0 3 C0 3.66 0 4.32 0 5 C0.99 5 1.98 5 3 5 C3.33 4.34 3.66 3.68 4 3 C3.37240135 5.92879371 2.41377341 8.36095629 1 11 C-1.30441554 7.54337669 -1.25860135 6.05142119 -1 2 C-0.67 1.34 -0.34 0.68 0 0 Z " fill="#8A8922" transform="translate(312,151)"/>
<path d="M0 0 C1.485 0.99 1.485 0.99 3 2 C2.34 4.97 1.68 7.94 1 11 C-1.78637633 6.8204355 -0.79562512 4.85331323 0 0 Z " fill="#BFC036" transform="translate(317,139)"/>
<path d="M0 0 C1.32 0 2.64 0 4 0 C4 1.32 4 2.64 4 4 C2.02 4.33 0.04 4.66 -2 5 C-2 4.01 -2 3.02 -2 2 C-1.34 2 -0.68 2 0 2 C0 1.34 0 0.68 0 0 Z " fill="#DE0D12" transform="translate(183,218)"/>
<path d="M0 0 C0.66 0.33 1.32 0.66 2 1 C1.67 5.62 1.34 10.24 1 15 C0.67 15 0.34 15 0 15 C-0.19390729 12.68802845 -0.37996367 10.3753971 -0.5625 8.0625 C-0.71912109 6.13083984 -0.71912109 6.13083984 -0.87890625 4.16015625 C-0.91886719 3.11730469 -0.95882812 2.07445312 -1 1 C-0.67 0.67 -0.34 0.34 0 0 Z " fill="#A86A21" transform="translate(246,156)"/>
<path d="M0 0 C0.33 0.66 0.66 1.32 1 2 C1.99 1.67 2.98 1.34 4 1 C4 2.98 4 4.96 4 7 C3.01 7.495 3.01 7.495 2 8 C2 7.34 2 6.68 2 6 C1.34 6 0.68 6 0 6 C0 4.02 0 2.04 0 0 Z " fill="#E8832C" transform="translate(237,196)"/>
<path d="M0 0 C1.5625 1 1.5625 1 3 3 C2.96726452 5.76614782 2.49404328 8.26030547 2 11 C1.67 10.01 1.34 9.02 1 8 C0.34 8 -0.32 8 -1 8 C-0.67 5.36 -0.34 2.72 0 0 Z " fill="#878924" transform="translate(308,166)"/>
<path d="M0 0 C0.99 0 1.98 0 3 0 C2.25 6.75 2.25 6.75 0 9 C0 6.03 0 3.06 0 0 Z " fill="#D1D24B" transform="translate(306,174)"/>
<path d="M0 0 C1.32 0.33 2.64 0.66 4 1 C4 3.97 4 6.94 4 10 C3.67 10 3.34 10 3 10 C3 8.35 3 6.7 3 5 C2.34 5 1.68 5 1 5 C0.67 3.35 0.34 1.7 0 0 Z " fill="#F7940F" transform="translate(243,121)"/>
<path d="M0 0 C0 0.66 0 1.32 0 2 C2.97 2 5.94 2 9 2 C9 2.33 9 2.66 9 3 C7.25034642 3.05429959 5.50020213 3.09292823 3.75 3.125 C2.77546875 3.14820313 1.8009375 3.17140625 0.796875 3.1953125 C-2.0196498 2.99862781 -3.60949036 2.44568916 -6 1 C-3 0 -3 0 0 0 Z " fill="#9B4224" transform="translate(213,208)"/>
<path d="M0 0 C0.99 0.33 1.98 0.66 3 1 C2.67 3.31 2.34 5.62 2 8 C1.34 8 0.68 8 0 8 C0 5.36 0 2.72 0 0 Z " fill="#F05D15" transform="translate(226,243)"/>
<path d="M0 0 C0.66 0 1.32 0 2 0 C2.1953125 6.0546875 2.1953125 6.0546875 2 8 C1.34 8.66 0.68 9.32 0 10 C-1.125 3.375 -1.125 3.375 0 0 Z " fill="#F87305" transform="translate(239,229)"/>
<path d="M0 0 C4.455 0.99 4.455 0.99 9 2 C9 2.33 9 2.66 9 3 C6.36 3 3.72 3 1 3 C0.67 2.01 0.34 1.02 0 0 Z " fill="#BC3E1C" transform="translate(204,209)"/>
<path d="M0 0 C0 2.31 0 4.62 0 7 C-0.99 6.67 -1.98 6.34 -3 6 C-3 4.35 -3 2.7 -3 1 C-1 0 -1 0 0 0 Z " fill="#E36625" transform="translate(231,281)"/>
</svg>
